<svg
  aria-hidden="true"
  style="position: absolute; width: 0; height: 0; overflow: hidden;"
  version="1.1"
  xmlns="http://www.w3.org/2000/svg"
  xmlns:xlink="http://www.w3.org/1999/xlink"
>
<defs>
<symbol id="icon-Illustration1" viewBox="0 0 38 32">
<path
        fill="#fcddd4"
        style="fill: var(--color1, #fcddd4)"
        d="M22.265 29.219c3.98 2.202 12.787-1.221 12.787-9.671-0-13.676-12.464-16.010-19.771-16.010-13.103 0-17.915 14.805-2.364 16.010 13.861 1.074 0.851 4.97 9.348 9.671z"
      />
<path
        fill="#d88d6c"
        style="fill: var(--color2, #d88d6c)"
        d="M24.437 31.97l-1.434-0.122 0.073-1.776 1.447 0.134-0.085 1.764z"
      />
<path
        fill="#000"
        style="fill: var(--color3, #000)"
        d="M21.763 31.727c0 0 0.948-0.438 1.106-0.754 0 0 0.28-1.022 0.705-0.486 0 0 0.438 0.353 1.058 0.073l0.073 1.934-4.291-0.012c0.109-0.292 0.207-0.62 1.349-0.754z"
      />
<path
        fill="#d88d6c"
        style="fill: var(--color2, #d88d6c)"
        d="M30.722 31.727l-1.435 0.243-0.377-1.727 1.422-0.243 0.389 1.727z"
      />
<path
        fill="#000"
        style="fill: var(--color3, #000)"
        d="M27.963 31.727c0 0 0.948-0.438 1.106-0.754 0 0-0.219-0.803 0.292-0.401 0 0 0.875 0.328 1.24-0.073l0.292 2.007-4.291-0.012c0.134-0.304 0.231-0.632 1.362-0.766z"
      />
<path
        fill="#000"
        style="fill: var(--color3, #000)"
        d="M22.76 15.235c0 0-0.255 7.309-0.024 15.616 0 0 0.693 0.657 2.006 0.219 0 0-0.012-9.243 0.34-12.916 0 0 1.653 6.981 3.744 13.026 0 0 1.398 0.268 1.896-0.523 0 0-2.82-9.79-3.234-15.421h-4.729z"
      />
<path
        fill="#402b2b"
        style="fill: var(--color4, #402b2b)"
        opacity="0.45"
        d="M22.76 15.235h4.729c0.036 0.426 0.073 0.876 0.134 1.338-2.82 0.012-4.316-0.705-4.875-1.034 0-0.207 0.012-0.304 0.012-0.304z"
      />
<path
        fill="#402b2b"
        style="fill: var(--color4, #402b2b)"
        d="M-2.37 18.339c0 1.364 0.785 2.465 1.751 2.465h1.751c0.966 0 1.742-1.111 1.742-2.465 0-1.364-0.785-2.465-1.751-2.465-0.018 0-0.027 0-0.045 0h-1.697c-0.975 0-1.751 1.111-1.751 2.465z"
      />
<path
        fill="#f48767"
        style="fill: var(--color5, #f48767)"
        d="M11.35 18.312c0 1.364 0.785 2.465 1.751 2.465h1.751c0.966 0 1.742-1.111 1.742-2.465 0-1.364-0.785-2.465-1.751-2.465-0.018 0-0.027 0-0.045 0h-1.697c-0.975 0-1.751 1.102-1.751 2.465z"
      />
<path
        fill="#402b2b"
        style="fill: var(--color4, #402b2b)"
        d="M-2.487 18.105l7.049-0.018-0.812-0.479-5.334 0.009-0.903 0.488z"
      />
<path
        fill="#f36f49"
        style="fill: var(--color6, #f36f49)"
        d="M-9.139 14.086l0.009 4.524 5.723-0.009 1.823-0.984 5.334-0.009 1.643 0.975 11.644-0.027c0.19 0 0.343-0.153 0.343-0.343l-0.009-4.181-26.51 0.054z"
      />
<path
        fill="#f48767"
        style="fill: var(--color5, #f48767)"
        d="M3.335 15.116l9.134-0.018-0.018-8.281c0-0.334-0.271-0.605-0.614-0.605l-8.53 0.018 0.027 8.886z"
      />
<path
        fill="#f06a5b"
        style="fill: var(--color7, #f06a5b)"
        d="M-10.909 15.152l14.234-0.027-0.018-8.886-13.629 0.027c-0.334 0-0.605 0.271-0.605 0.614l0.018 8.272z"
      />
<path
        fill="#f48767"
        style="fill: var(--color5, #f48767)"
        d="M10.194 18.312c0 1.364-0.776 2.465-1.742 2.465h-1.742v-0.831c-0.641 0-1.164-0.731-1.164-1.634s0.514-1.634 1.155-1.634v-0.831h1.742c0.966 0.009 1.742 1.111 1.751 2.465z"
      />
<path
        fill="#f48767"
        style="fill: var(--color5, #f48767)"
        d="M5.266 18.33c0 1.12 0.641 2.023 1.435 2.014 0.794 0 1.426-0.903 1.426-2.023s-0.641-2.023-1.435-2.014c-0.785 0-1.426 0.903-1.426 2.023z"
      />
<path
        fill="#f7a58d"
        style="fill: var(--color8, #f7a58d)"
        d="M6.701 19.658c0.524 0 0.939-0.596 0.939-1.336s-0.424-1.327-0.948-1.327c-0.524 0-0.939 0.596-0.939 1.336s0.424 1.327 0.948 1.327zM6.701 17.536c0.307 0 0.56 0.352 0.56 0.786s-0.253 0.795-0.56 0.795c-0.307 0-0.56-0.352-0.56-0.786 0-0.442 0.244-0.795 0.56-0.795z"
      />
<path
        fill="#f7a58d"
        style="fill: var(--color8, #f7a58d)"
        d="M6.701 20.787c0.966 0 1.742-1.111 1.742-2.465s-0.785-2.465-1.751-2.465c-0.966 0-1.742 1.111-1.742 2.465s0.794 2.474 1.751 2.465zM6.692 16.308c0.794 0 1.435 0.903 1.435 2.014 0 1.12-0.632 2.023-1.426 2.023s-1.435-0.903-1.435-2.014c0-1.12 0.641-2.023 1.426-2.023z"
      />
<path
        fill="#5b2929"
        style="fill: var(--color9, #5b2929)"
        d="M6.458 18.321c0-0.19 0.108-0.334 0.235-0.334s0.235 0.154 0.244 0.334c0 0.19-0.108 0.334-0.235 0.334-0.135 0.009-0.244-0.145-0.244-0.334z"
      />
<path
        fill="#f69276"
        style="fill: var(--color10, #f69276)"
        d="M18.517 11.567c0 0.036 0.027 0.063 0.054 0.072 0.072 0.018 0.343 0.018 0.424-0.009 0.036-0.009 0.072-0.036 0.072-0.081 0.027-0.722 0.027-1.427 0-2.095 0-0.045-0.036-0.072-0.072-0.081-0.090-0.027-0.406-0.045-0.505-0.009-0.036 0.009-0.063 0.045-0.063 0.081-0.018 0.686 0.009 1.391 0.090 2.122z"
      />
<path
        fill="#f69276"
        style="fill: var(--color10, #f69276)"
        d="M18.074 12.208c0.009 0 0.018 0 0.036-0.009l0.614-0.307c0.144-0.072 0.235-0.217 0.235-0.379l-0.009-2.267c0-0.090-0.072-0.163-0.162-0.163h-1.688c-0.045 0-0.072 0.036-0.072 0.072 0 0.045 0.036 0.072 0.072 0.072h1.688c0.009 0 0.009 0.009 0.009 0.009l0.009 2.267c0 0.108-0.063 0.199-0.153 0.244l-0.614 0.307c-0.036 0.018-0.054 0.063-0.036 0.099 0.018 0.045 0.045 0.054 0.072 0.054z"
      />
<path
        fill="#f36f49"
        style="fill: var(--color6, #f36f49)"
        d="M4.562 15.098c0 0 0.235 0 0.596 0h1.435c1.074 0 1.327 0.533 1.986 1.842l2.085-0.009c0 0 0-0.153 0-0.415l7.961-0.018c0.036-0.659 0.108-1.996 0.108-3.26 0-0.045 0-0.081 0-0.126 0-0.361-0.063-0.758-0.171-1.156-0.424-1.553-1.498-3.206-1.941-3.811-0.144-0.199-0.271-0.37-0.379-0.524-0.307-0.406-0.514-0.614-0.903-0.614l-9.649 0.027c-0.199 0-0.379 0.135-0.433 0.325-0.83 3.052-0.704 5.373-0.695 7.739zM12.695 8.108c-0.009-0.045 0.027-0.081 0.072-0.081l2.934-0.009c0.171 0 0.343 0.090 0.451 0.244 1.146 1.562 1.607 2.989 1.778 3.811l0.181 0.867c0.027 0.126-0.054 0.226-0.181 0.226h-0.713c-0.117 0-0.244-0.054-0.334-0.144l-1.462-1.4c-0.162-0.154-0.379-0.244-0.587-0.244h-1.751l-0.388-3.269z"
      />
<path
        fill="#f6977c"
        style="fill: var(--color11, #f6977c)"
        d="M11.178 11.982c0.063 0.289 0.135 0.587 0.199 0.903 0.045 0.217 0.235 0.37 0.451 0.379 2.852 0.099 5.217 0.108 6.905-0.018 0-0.045 0-0.081 0-0.126 0-0.361-0.063-0.759-0.171-1.156l-7.383 0.018z"
      />
<path
        fill="#f36f49"
        style="fill: var(--color6, #f36f49)"
        d="M5.907 8.036l2.933-0.009c0.172 0 0.325 0.090 0.406 0.244 0.821 1.562 0.993 2.989 0.993 3.811v0.867c0 0.126-0.099 0.226-0.226 0.226h-0.713c-0.117 0-0.235-0.054-0.307-0.144l-1.173-1.4c-0.135-0.154-0.325-0.253-0.533-0.244h-1.751l0.28-3.269c0-0.045 0.036-0.081 0.090-0.081z"
      />
<path
        fill="#f7a58d"
        style="fill: var(--color8, #f7a58d)"
        d="M4.562 15.098c0 0 0.235 0 0.596 0h1.435c1.074 0 1.327 0.533 1.986 1.842l2.085-0.009c0 0 0-0.153 0-0.415l7.961-0.018c0.036-0.659 0.108-1.996 0.108-3.26-1.688 0.126-4.062 0.126-6.905 0.018-0.217-0.009-0.406-0.163-0.451-0.379-0.063-0.316-0.135-0.623-0.199-0.903-0.388-1.653-0.812-2.835-1.372-4.118-0.045-0.099 0.027-0.217 0.135-0.217l6.3-0.018c-0.307-0.406-0.514-0.614-0.903-0.614l-9.649 0.027c-0.199 0-0.379 0.135-0.433 0.325-0.83 3.052-0.704 5.373-0.695 7.739zM5.528 11.386l0.28-3.269c0-0.045 0.045-0.081 0.090-0.081l2.933-0.009c0.172 0 0.325 0.090 0.406 0.244 0.821 1.562 0.993 2.989 0.993 3.811v0.867c0 0.126-0.099 0.226-0.226 0.226h-0.713c-0.117 0-0.235-0.054-0.307-0.145l-1.173-1.4c-0.135-0.153-0.325-0.253-0.533-0.244h-1.751z"
      />
<path
        fill="#f58a6b"
        style="fill: var(--color12, #f58a6b)"
        d="M4.914 14.863c0 0.135 0.108 0.235 0.244 0.235h1.435c1.074 0 1.327 0.533 1.986 1.842l2.085-0.009c0 0 0-0.154 0-0.415l-0.009-3.657c0-1.815-0.325-2.962-1.182-4.777-0.126-0.271-0.406-0.442-0.704-0.442l-3.105 0.009c-0.072 0-0.126 0.045-0.144 0.108-0.614 2.33-0.614 6.122-0.605 7.107zM5.528 11.386l0.28-3.269c0-0.045 0.045-0.081 0.090-0.081l2.933-0.009c0.172 0 0.325 0.090 0.406 0.244 0.821 1.562 0.993 2.989 0.993 3.811v0.867c0 0.126-0.099 0.226-0.226 0.226h-0.713c-0.117 0-0.235-0.054-0.307-0.144l-1.173-1.4c-0.135-0.154-0.325-0.253-0.533-0.244h-1.751z"
      />
<path
        fill="#f7a58d"
        style="fill: var(--color8, #f7a58d)"
        d="M5.925 8.144l2.915-0.009c0.126 0 0.244 0.072 0.307 0.181 0.848 1.616 0.984 3.052 0.984 3.757v0.867c0 0.063-0.054 0.117-0.117 0.117h-0.713c-0.090 0-0.171-0.036-0.226-0.099l-1.173-1.4c-0.153-0.181-0.379-0.289-0.623-0.289h-1.625l0.271-3.124zM5.907 8.036c-0.045 0-0.090 0.036-0.090 0.081l-0.28 3.269h1.751c0.208 0 0.397 0.090 0.533 0.244l1.173 1.4c0.072 0.090 0.19 0.144 0.307 0.144h0.713c0.126 0 0.226-0.099 0.226-0.226v-0.867c0-0.822-0.171-2.248-0.993-3.811-0.081-0.154-0.235-0.244-0.406-0.244l-2.933 0.009z"
      />
<path
        fill="#f6977c"
        style="fill: var(--color11, #f6977c)"
        d="M10.655 14.791v1.725l3.15-0.009c-0.036-0.451-0.117-0.885-0.253-1.291-0.054-0.163-0.19-0.28-0.361-0.307-0.695-0.081-1.58-0.117-2.536-0.117zM17.027 16.506h1.562c0.027-0.379 0.054-0.993 0.081-1.689-0.379 0.018-0.731 0.054-1.047 0.099-0.171 0.027-0.307 0.144-0.361 0.307-0.126 0.397-0.199 0.831-0.235 1.282z"
      />
<path
        fill="#f6977c"
        style="fill: var(--color11, #f6977c)"
        d="M10.664 18.249l7.302-0.018c0.496 0 0.903-0.406 0.903-0.903v-0.153c0-0.144-0.117-0.253-0.253-0.253l-7.943 0.018-0.009 1.309z"
      />
<path
        fill="#f7a58d"
        style="fill: var(--color8, #f7a58d)"
        d="M9.319 18.249h1.345v-1.309h-2.067l0.226 0.912c0.054 0.235 0.262 0.397 0.496 0.397z"
      />
<path
        fill="#f6977c"
        style="fill: var(--color11, #f6977c)"
        d="M6.106 13.472c0.307 0.009 0.903 0.072 0.903 0.289s-0.524 0.289-0.948 0.289-0.469-0.235-0.505-0.334c-0.027-0.099-0.054-0.253 0.551-0.244z"
      />
<path
        fill="#f47b58"
        style="fill: var(--color13, #f47b58)"
        d="M6.133 13.707c-0.144 0-0.298-0.045-0.37-0.117 0.054-0.027 0.135-0.054 0.262-0.054 0.235 0 0.614 0.027 0.812 0.117-0.027 0.018-0.099 0.054-0.217 0.054-0.144 0-0.334 0-0.487 0z"
      />
<path
        fill="#f47b58"
        style="fill: var(--color13, #f47b58)"
        d="M6.738 13.879c0.054 0 0.081 0.009 0.090 0.018-0.162 0.072-0.46 0.099-0.605 0.099-0.208 0-0.352 0-0.397-0.045 0.036-0.027 0.117-0.072 0.199-0.072 0.108 0.009 0.641 0 0.713 0z"
      />
<path
        fill="#f58a6b"
        style="fill: var(--color12, #f58a6b)"
        d="M10.664 16.524c0 0.262 0 0.415 0 0.415l7.934-0.018c0 0 0.009-0.154 0.027-0.415l-7.961 0.018z"
      />
<path
        fill="#f16036"
        style="fill: var(--color14, #f16036)"
        opacity="0.2"
        d="M14.085 14.7v1.725l2.663-0.009v-1.725c0-0.208-0.19-0.37-0.424-0.37h-1.823c-0.226 0.009-0.415 0.181-0.415 0.379z"
      />
<path
        fill="#fff"
        style="fill: var(--color15, #fff)"
        d="M17.641 16.362h0.56c0.144 0 0.271-0.117 0.271-0.271v-0.28c0-0.145-0.117-0.271-0.271-0.271h-0.56c-0.144 0-0.271 0.117-0.271 0.271v0.28c0 0.154 0.126 0.271 0.271 0.271z"
      />
<path
        fill="#fff"
        style="fill: var(--color15, #fff)"
        d="M12.343 16.38h0.56c0.144 0 0.271-0.117 0.271-0.271v-0.28c0-0.144-0.117-0.271-0.271-0.271h-0.56c-0.144 0-0.271 0.117-0.271 0.271v0.28c0 0.144 0.117 0.271 0.271 0.271z"
      />
<path
        fill="#f7a58d"
        style="fill: var(--color8, #f7a58d)"
        d="M8.732 11.585c0 0.036 0.027 0.063 0.054 0.072 0.352 0.036 0.722 0.036 1.101-0.009 0.045-0.009 0.072-0.036 0.072-0.081 0.027-0.722 0.027-1.427 0-2.095 0-0.045-0.036-0.072-0.072-0.081-0.388-0.045-0.776-0.045-1.182 0-0.036 0.009-0.063 0.045-0.063 0.081-0.027 0.677 0.009 1.382 0.090 2.113z"
      />
<path
        fill="#f69276"
        style="fill: var(--color10, #f69276)"
        d="M10.131 12.226c0.027 0 0.054-0.018 0.063-0.045 0.018-0.036 0-0.081-0.036-0.099l-0.614-0.298c-0.090-0.045-0.153-0.144-0.153-0.244l-0.009-2.267c0-0.009 0.009-0.009 0.009-0.009h0.379c0.045 0 0.072-0.036 0.072-0.072 0-0.045-0.036-0.072-0.072-0.072h-0.379c-0.090 0-0.162 0.072-0.162 0.163l0.009 2.267c0 0.163 0.090 0.307 0.235 0.379l0.614 0.298c0.027 0 0.036 0 0.045 0z"
      />
<path
        fill="#f8b4a0"
        style="fill: var(--color16, #f8b4a0)"
        d="M14.271 18.356l2.554-0.006-0.002-0.768-2.554 0.006 0.002 0.768z"
      />
<path
        fill="#000"
        style="fill: var(--color3, #000)"
        opacity="0.6"
        d="M9.789 7.883c0.56 1.282 0.975 2.465 1.372 4.118l7.383-0.018c-0.424-1.553-1.498-3.206-1.941-3.811-0.144-0.199-0.271-0.37-0.379-0.524l-6.3 0.018c-0.108 0.009-0.181 0.117-0.135 0.217z"
      />
<path
        fill="#8c5e5e"
        style="fill: var(--color17, #8c5e5e)"
        d="M37.794 25.429h-7.229v5.582h7.229v-5.582z"
      />
<path
        fill="#694646"
        style="fill: var(--color18, #694646)"
        d="M37.806 25.429h-2.632v5.582h2.632v-5.582z"
      />
<path
        fill="#a3774a"
        style="fill: var(--color19, #a3774a)"
        d="M36.905 25.429h-0.678v0.772h0.678v-0.772z"
      />
<path
        fill="#a3774a"
        style="fill: var(--color19, #a3774a)"
        d="M33.022 25.429h-0.678v0.772h0.678v-0.772z"
      />
<path
        fill="#f7a58d"
        style="fill: var(--color8, #f7a58d)"
        d="M33.054 25.429h-7.229v5.582h7.229v-5.582z"
      />
<path
        fill="#f58a6b"
        style="fill: var(--color12, #f58a6b)"
        d="M33.065 25.429h-2.632v5.582h2.632v-5.582z"
      />
<path
        fill="#fff"
        style="fill: var(--color15, #fff)"
        d="M32.165 25.429h-0.678v0.772h0.678v-0.772z"
      />
<path
        fill="#fff"
        style="fill: var(--color15, #fff)"
        d="M28.281 25.429h-0.678v0.772h0.678v-0.772z"
      />
<path
        fill="#f7a58d"
        style="fill: var(--color8, #f7a58d)"
        d="M34.897 20.010h-7.229v5.582h7.229v-5.582z"
      />
<path
        fill="#f58a6b"
        style="fill: var(--color12, #f58a6b)"
        d="M34.909 20.010h-2.632v5.582h2.632v-5.582z"
      />
<path
        fill="#fff"
        style="fill: var(--color15, #fff)"
        d="M34.008 20.010h-0.678v0.772h0.678v-0.772z"
      />
<path
        fill="#fff"
        style="fill: var(--color15, #fff)"
        d="M30.125 20.010h-0.678v0.772h0.678v-0.772z"
      />
<path
        fill="#6b1912"
        style="fill: var(--color20, #6b1912)"
        d="M23.234 2.988h1.167l0.158-0.705c0 0-0.462 0.268-0.571 0.085s-0.085-0.109-0.194-0.085-0.109-0.122-0.243-0.037c-0.146 0.097-0.365 0.559-0.316 0.742z"
      />
<path
        fill="#000"
        style="fill: var(--color3, #000)"
        d="M20.667 12.149l1.155-1.746 1.665 0.484c-0.064 0.516-1.137 2.059-1.665 2.767l-1.155-1.504z"
      />
<path
        fill="#000"
        style="fill: var(--color3, #000)"
        d="M20.829 11.517c0.567-2.58 1.682-4.347 1.682-4.347 0.628 0.138 0.858 2.332 0.858 2.332-0.133 0.766-0.537 2.758-0.858 3.493l-1.682-1.477z"
      />
<path
        fill="#000"
        style="fill: var(--color3, #000)"
        d="M22.504 7.141c0 0 0.061 1.399 0.243 8.124 0 0 1.653 0.839 4.948 0.255 0 0 0.012-2.019 0.462-3.807 0 0 0.839-3.369 0.413-4.354 0 0-2.687-1.666-6.066-0.219z"
      />
<path
        fill="#000"
        style="fill: var(--color3, #000)"
        d="M25.057 5.808l-0.024 0.871c0 0 0.207 0.304 0.705 0.341 0.498 0.024 0.742-0.255 0.742-0.255l0.049-1.296c-0.62 0.268-1.228 0.377-1.471 0.341z"
      />
<path
        fill="#000"
        style="fill: var(--color3, #000)"
        d="M25.106 5.45l-0.049 0.961c0.243 0.037 0.851-0.073 1.459-0.341l0.036-0.62h-1.447z"
      />
<path
        fill="#ee4d47"
        style="fill: var(--color21, #ee4d47)"
        opacity="0.29"
        d="M28.4 9.257c0 0-0.717 1.618-0.973 2.347-0.255 0.718-0.255 3.576-1.593 4.123 0 0 1.422-0.085 1.872-0.207 0 0 0.024-2.153 0.462-3.807 0 0 0.304-1.739 0.425-2.53l-0.195 0.073z"
      />
<path
        fill="#402b2b"
        style="fill: var(--color4, #402b2b)"
        d="M27.452 3.334c-0.024 0.012-0.049 0.401-0.049 0.401l-0.097 0.815-0.45 0.353-0.255 0.109c0 0-0.377-0.158-0.328-0.304 0.049-0.134 0.292-2.055 0.34-2.055s0.438 0.28 0.438 0.28l0.401 0.401z"
      />
<path
        fill="#402b2b"
        style="fill: var(--color4, #402b2b)"
        d="M23.89 2.604c-0.109 0 0.061 1.338 0.061 1.338l0.195-0.535 0.134-0.645-0.389-0.158z"
      />
<path
        fill="#000"
        style="fill: var(--color3, #000)"
        d="M24.073 2.872l-0.207 1.715c0 0-0.073 1.447 1.118 1.532 1.191 0.073 2.006-1.107 2.006-1.107s0.146 0.17 0.304-0.122c0.146-0.292 0.049-0.681-0.158-0.718-0.219-0.024-0.316 0.097-0.34 0.28s-0.049 0.316-0.049 0.316l-0.182-0.024 0.134-1.411c0 0-0.28-0.547-0.596-0.657s-0.596 0.328-0.596 0.328c0 0-0.292 0.061-0.571 0s-0.462-0.134-0.462-0.134c0 0-0.17 0.049-0.401 0z"
      />
<path
        fill="#893d43"
        style="fill: var(--color22, #893d43)"
        d="M24.936 5.463c0.401 0.024 0.462-0.438 0.462-0.438s-0.924-0.109-0.948-0.122c0 0-0.073 0.523 0.486 0.559z"
      />
<path
        fill="#fffeff"
        style="fill: var(--color23, #fffeff)"
        d="M25.361 5.171c0.036-0.085 0.049-0.146 0.049-0.146s-0.924-0.109-0.948-0.122c0 0-0.012 0.061 0 0.158l0.9 0.109z"
      />
<path
        fill="#402b2b"
        style="fill: var(--color4, #402b2b)"
        d="M25.325 2.434v-1.241c0.742 0.036 1.507 0.182 1.884 0.645 0.45 0.547 0.194 1.812 0.194 1.812s-0.547-0.061-0.644-0.243c-0.097-0.182-1.021-0.438-1.726-0.401s-1.045-0.037-1.398-0.341c-0.073-0.061-0.134-0.146-0.182-0.243h1.872v0.012z"
      />
<path
        fill="#000"
        style="fill: var(--color3, #000)"
        d="M27.489 3.188c0 0-0.523-0.17-1.398-0.243-1.471-0.62-2.103-0.511-2.103-0.511s0.012-0.474 0.146-0.803c0.134-0.328 1.033-0.791 1.787-0.718s1.532 0.632 1.653 1.168c0.097 0.413-0.085 1.107-0.085 1.107z"
      />
<path
        fill="#000"
        style="fill: var(--color3, #000)"
        d="M26.601 3.006c-0.158-0.754-1.289-1.131-2.091-1.119-0.79 0.012-1.349 0.669-1.434 1.119-0.036 0.182 0.109 0.207 0.158 0.049 0.036-0.109 0.109-0.632 0.839-0.572s0.693 0.718 1.058 0.778c0.34 0.061 0.729-0.182 1.471-0.255z"
      />
<path
        fill="#402b2b"
        style="fill: var(--color4, #402b2b)"
        d="M24.158 3.176v-0.085c0.036 0 0.316-0.037 0.656 0.037l-0.012 0.134c-0.28-0.085-0.644-0.085-0.644-0.085z"
      />
<path
        fill="#402b2b"
        style="fill: var(--color4, #402b2b)"
        d="M26.212 3.48c-0.219-0.122-0.632-0.182-0.632-0.195l0.049-0.122c0.012 0 0.389 0.073 0.632 0.231l-0.049 0.085z"
      />
<path
        fill="#d87c60"
        style="fill: var(--color24, #d87c60)"
        d="M24.996 3.894c0 0-0.036 0.255-0.134 0.328s-0.267 0.134-0.292 0.195c-0.024 0.049 0.024 0.146 0.134 0.182s0.122 0.073 0.122 0.073c0 0-0.219 0.024-0.328-0.109s0.012-0.243 0.122-0.304c0.109-0.061 0.158-0.085 0.207-0.122 0.061-0.037 0.17-0.243 0.17-0.243z"
      />
<path
        fill="#402b2b"
        style="fill: var(--color4, #402b2b)"
        d="M25.519 4.027c0 0.122 0.085 0.231 0.194 0.231s0.195-0.097 0.195-0.231c0-0.122-0.085-0.231-0.195-0.231s-0.194 0.097-0.194 0.231z"
      />
<path
        fill="#402b2b"
        style="fill: var(--color4, #402b2b)"
        d="M24.182 3.869c0 0.122 0.085 0.231 0.195 0.231s0.194-0.097 0.194-0.231c0-0.122-0.085-0.231-0.194-0.231-0.109 0.012-0.195 0.109-0.195 0.231z"
      />
<path
        fill="#fff"
        style="fill: var(--color15, #fff)"
        d="M18.288 9.212c-0.051-0.094-0.015-0.212 0.079-0.262s0.212-0.015 0.263 0.079l0.641 1.196-0.342 0.183-0.641-1.196z"
      />
<path
        fill="#822626"
        style="fill: var(--color25, #822626)"
        d="M18.411 9.437l0.339-0.182 0.733 1.367-0.339 0.182-0.733-1.367z"
      />
<path
        fill="#000"
        style="fill: var(--color3, #000)"
        d="M23.381 12.914c-0.15-0.301-0.116-0.537-0.081-0.618 0.152 0.090 0.467 0.317 0.51 0.51s-0.054 0.439-0.107 0.537c-0.045-0.018-0.172-0.129-0.322-0.43z"
      />
<path
        fill="#fff"
        style="fill: var(--color15, #fff)"
        d="M16.927 10.815c-0.063-0.214 0.097-0.428 0.32-0.428h4.087c0.148 0 0.278 0.097 0.32 0.239l1.522 5.165c0.063 0.214-0.097 0.428-0.32 0.428h-4.087c-0.148 0-0.278-0.097-0.32-0.239l-1.522-5.165z"
      />
<path
        fill="#000"
        style="fill: var(--color3, #000)"
        d="M16.844 10.552c-0.056-0.211 0.104-0.419 0.322-0.419h4.092c0.151 0 0.284 0.102 0.322 0.248l1.542 5.832c0.056 0.211-0.104 0.419-0.322 0.419h-4.092c-0.151 0-0.284-0.102-0.322-0.248l-1.542-5.832z"
      />
<path
        fill="#000"
        style="fill: var(--color3, #000)"
        d="M27.756 12.796c0.887-1.289 1.009-5.193 1.009-5.193-0.817 0.106-1.207 0.915-1.457 1.434-0.122 0.254-0.212 0.439-0.301 0.439l-0.376 2.391-3.761 0.672c-0.003 0.004-0.006 0.009-0.009 0.013-0.185 0.005-0.828 0.041-1.248 0.308 0 0-0.217 0.163-0.092 0.277 0.060 0.065 0.041 0.136 0.022 0.207s-0.038 0.141 0.022 0.207c0.050 0.055 0.058 0.112 0.066 0.168 0.011 0.077 0.021 0.152 0.14 0.218 0 0-0.022 0.174 0.136 0.245 0.007 0.003 0.015 0.007 0.023 0.010 0.167 0.075 0.491 0.221 0.554 0.164 0.023-0.021 0.082-0.064 0.147-0.111 0.117-0.085 0.257-0.187 0.261-0.215 0.005-0.044-0.005-0.12-0.147-0.131 0 0 0.136-0.027 0.277-0.125 0.147-0.087 0.305-0.315 0.305-0.315l0.143-0.327c3.484 0.297 4.288-0.335 4.288-0.335z"
      />
<path
        fill="#000"
        style="fill: var(--color3, #000)"
        d="M26.735 9.391l-0.34 1.788-0.086 0.45-3.009 0.667c0.143 0.125 0.424 0.505 0.403 1.021 0.931 0.134 3.025 0.274 3.949-0.242 0.169-0.131 0.547-0.605 0.712-1.446 1.082-3.722 0.207-4.269 0.207-4.269-1.216 0.158-1.836 2.031-1.836 2.031z"
      />
<path
        fill="#fcddd4"
        style="fill: var(--color1, #fcddd4)"
        d="M16.171 21.39c-0.090-0.414-0.238-0.805-0.435-1.164-0.027-0.049-0.058-0.103-0.090-0.153-0.229-0.382-0.512-0.724-0.839-1.020-0.040-0.040-0.085-0.076-0.13-0.112-0.35-0.292-0.749-0.53-1.18-0.701-0.054-0.022-0.108-0.040-0.162-0.058-0.431-0.153-0.897-0.238-1.378-0.247-0.027 0-0.058 0-0.085 0s-0.058 0-0.085 0c-0.485 0.009-0.947 0.094-1.378 0.247-0.054 0.018-0.108 0.040-0.162 0.058-0.431 0.171-0.83 0.409-1.18 0.701-0.045 0.036-0.090 0.076-0.13 0.112-0.328 0.297-0.615 0.638-0.839 1.020-0.031 0.049-0.058 0.103-0.090 0.153-0.197 0.36-0.346 0.751-0.435 1.164-0.013 0.058-0.022 0.117-0.036 0.175-0.045 0.252-0.067 0.508-0.067 0.769h8.8c0-0.261-0.022-0.521-0.067-0.769-0.009-0.058-0.018-0.117-0.031-0.175z"
      />
<path
        fill="#fff"
        style="fill: var(--color15, #fff)"
        d="M21.61 23.627c-0.112-0.514-0.297-1-0.544-1.446-0.034-0.061-0.073-0.128-0.112-0.19-0.286-0.475-0.639-0.899-1.049-1.268-0.050-0.050-0.107-0.095-0.163-0.14-0.438-0.363-0.937-0.659-1.475-0.871-0.067-0.028-0.135-0.050-0.202-0.073-0.539-0.19-1.122-0.296-1.722-0.307-0.034 0-0.073 0-0.107 0s-0.073 0-0.107 0c-0.606 0.011-1.184 0.117-1.722 0.307-0.067 0.022-0.135 0.050-0.202 0.073-0.538 0.212-1.038 0.508-1.475 0.871-0.056 0.045-0.112 0.095-0.163 0.14-0.409 0.369-0.768 0.793-1.049 1.268-0.039 0.061-0.073 0.128-0.112 0.19-0.247 0.447-0.432 0.933-0.544 1.446-0.017 0.073-0.028 0.145-0.045 0.218-0.056 0.313-0.084 0.631-0.084 0.955h11c0-0.324-0.028-0.648-0.084-0.955-0.011-0.073-0.022-0.145-0.039-0.218z"
      />
<path
        fill="#f37753"
        style="fill: var(--color26, #f37753)"
        d="M22.962 22.535c-0.731 0-1.006-0.64-1.006-1.532s-0.251-1.623-1.234-1.669c-1.28-0.046-1.165 1.189-1.165 2.698 0 1.92-0.686 0.686-1.645 1.76-0.823 0.914 0.229 2.538 0.548 3.018h4.136c0.137-0.251 0.48-0.869 0.868-1.623 0.868-1.6 0.229-2.652-0.503-2.652z"
      />
<path
        fill="#fff"
        style="fill: var(--color15, #fff)"
        opacity="0.2"
        d="M20.996 22.832h-0.206v2.867l-0.864-1.152-0.165 0.123 1.028 1.372v0.768h0.206v-2.166l0.871-1.081-0.16-0.129-0.711 0.883v-1.484z"
      />
<path
        fill="#fcddd4"
        style="fill: var(--color1, #fcddd4)"
        d="M17.604 26.8h6v3.333h-6v-3.333z"
      />
</symbol>
<symbol id="icon-illustration2" viewBox="0 0 34 32">
<path
        fill="#fcddd4"
        style="fill: var(--color1, #fcddd4)"
        d="M15.741 6.647c-3.953-2.699-10.242 0.36-9.803 6.795 0.749 10.972 8.395 12.247 15.081 10.972 8.749-1.668 10.767-11.676 2.689-10.972-6.483 0.565-3.026-3.421-7.967-6.795z"
      />
<path
        fill="#f58a6b"
        style="fill: var(--color12, #f58a6b)"
        d="M12.772 25.687c0-1.301 1.055-2.356 2.356-2.356h12.583v5.184h-14.94v-2.828z"
      />
<path
        fill="#3e1a0b"
        style="fill: var(--color27, #3e1a0b)"
        d="M7.464 14.123c0.077 0.063 0.137 0.132 0.185 0.197l0.124-0.165c-0.059-0.062-0.116-0.119-0.185-0.173l-0.124 0.142z"
      />
<path
        fill="#f69e9f"
        style="fill: var(--color28, #f69e9f)"
        d="M7.866 14.412c-0.070-0.126-0.225-0.168-0.35-0.093l-0.164 0.104c-0.124 0.075-0.164 0.242-0.099 0.369 0.070 0.126 0.225 0.168 0.349 0.093l0.165-0.104c0.124-0.075 0.171-0.238 0.099-0.369z"
      />
<path
        fill="#000"
        style="fill: var(--color3, #000)"
        d="M14.52 9.154l-2.914 0.48-0.155-0.938c-0.015-0.080-0.091-0.138-0.178-0.127l-2.31 0.378c-0.080 0.015-0.138 0.091-0.127 0.178l0.155 0.938-2.747 0.453c-0.069 0.012-0.123 0.081-0.11 0.15l1.88 11.459c0.012 0.069 0.081 0.123 0.15 0.11l8.277-1.358c0.069-0.012 0.123-0.081 0.11-0.15l-1.886-11.458c-0.003-0.077-0.075-0.124-0.146-0.117z"
      />
<path
        fill="#f36f49"
        style="fill: var(--color6, #f36f49)"
        d="M14.116 10.606l-7.273 1.197c-0.063 0.011-0.107 0.071-0.096 0.134l1.629 9.916c0.011 0.063 0.071 0.107 0.134 0.096l7.273-1.197c0.063-0.011 0.107-0.071 0.096-0.134l-1.629-9.916c-0.011-0.063-0.071-0.107-0.134-0.096z"
      />
<path
        fill="#fafbfc"
        style="fill: var(--color29, #fafbfc)"
        d="M14.093 10.255l-7.096 1.162c-0.063 0.011-0.102 0.069-0.091 0.133l1.59 9.68c0.011 0.063 0.069 0.102 0.133 0.091l7.101-1.169c0.063-0.011 0.102-0.069 0.091-0.133l-1.59-9.68c-0.015-0.056-0.073-0.095-0.137-0.084z"
      />
<path
        fill="#f58a6b"
        style="fill: var(--color12, #f58a6b)"
        opacity="0.8"
        d="M13.833 10.673l-6.456 1.063c-0.035 0.003-0.066 0.024-0.082 0.052s-0.026 0.061-0.022 0.096l1.467 8.931c0.003 0.035 0.024 0.066 0.052 0.082s0.061 0.026 0.096 0.022l6.457-1.057c0.035-0.003 0.066-0.024 0.082-0.052s0.026-0.061 0.022-0.096l-1.469-8.937c-0.003-0.035-0.024-0.066-0.052-0.082s-0.061-0.026-0.096-0.022zM15.398 19.722c0.006 0.022-0.001 0.042-0.015 0.058s-0.029 0.026-0.052 0.032l-6.45 1.061c-0.022 0.006-0.042-0.001-0.058-0.015s-0.026-0.029-0.032-0.052l-1.469-8.937c-0.006-0.022 0.001-0.042 0.014-0.058s0.029-0.026 0.052-0.032l6.456-1.063c0.022-0.006 0.042 0.001 0.058 0.014s0.026 0.029 0.032 0.052l1.463 8.938z"
      />
<path
        fill="#fafbfc"
        style="fill: var(--color29, #fafbfc)"
        d="M10.155 9.020c-0.138 0.025-0.23 0.152-0.205 0.289s0.152 0.23 0.289 0.205c0.138-0.025 0.23-0.152 0.205-0.289-0.023-0.132-0.152-0.23-0.289-0.205z"
      />
<path
        fill="#f58a6b"
        style="fill: var(--color12, #f58a6b)"
        d="M12.093 9.408l-3.629 0.594c-0.080 0.015-0.138 0.091-0.127 0.178l0.169 1.013c0.015 0.080 0.091 0.138 0.178 0.127l3.629-0.594c0.080-0.015 0.138-0.091 0.127-0.178l-0.165-1.020c-0.021-0.079-0.102-0.135-0.182-0.119z"
      />
<path
        fill="#f36f49"
        style="fill: var(--color6, #f36f49)"
        opacity="0.8"
        d="M10.14 9.883l-1.382 0.226c-0.063 0.011-0.107 0.071-0.096 0.134l0.131 0.782c0.011 0.063 0.071 0.107 0.134 0.096l1.382-0.226c0.063-0.011 0.107-0.071 0.096-0.134l-0.131-0.782c-0.011-0.063-0.071-0.107-0.134-0.096z"
      />
<path
        fill="#ee4d47"
        style="fill: var(--color21, #ee4d47)"
        opacity="0.2"
        d="M9.947 12.443l0.016 0.097 3.8-0.625-0.016-0.097-3.8 0.625z"
      />
<path
        fill="#ee4d47"
        style="fill: var(--color21, #ee4d47)"
        opacity="0.2"
        d="M9.987 12.689l0.016 0.097 3.8-0.625-0.016-0.097-3.8 0.625z"
      />
<path
        fill="#ee4d47"
        style="fill: var(--color21, #ee4d47)"
        opacity="0.2"
        d="M11.922 12.616l0.016 0.097 1.903-0.313-0.016-0.097-1.903 0.313z"
      />
<path
        fill="#ee4d47"
        style="fill: var(--color21, #ee4d47)"
        opacity="0.2"
        d="M10.027 12.929l0.016 0.097 1.782-0.293-0.016-0.097-1.782 0.293z"
      />
<path
        fill="#ee4d47"
        style="fill: var(--color21, #ee4d47)"
        opacity="0.2"
        d="M10.209 14.054l0.016 0.097 3.8-0.625-0.016-0.097-3.8 0.625z"
      />
<path
        fill="#ee4d47"
        style="fill: var(--color21, #ee4d47)"
        opacity="0.2"
        d="M10.249 14.3l0.016 0.097 3.8-0.625-0.016-0.097-3.8 0.625z"
      />
<path
        fill="#ee4d47"
        style="fill: var(--color21, #ee4d47)"
        opacity="0.2"
        d="M12.19 14.227l0.016 0.097 1.903-0.313-0.016-0.097-1.903 0.313z"
      />
<path
        fill="#ee4d47"
        style="fill: var(--color21, #ee4d47)"
        opacity="0.2"
        d="M10.289 14.54l0.016 0.097 1.782-0.293-0.016-0.097-1.782 0.293z"
      />
<path
        fill="#ee4d47"
        style="fill: var(--color21, #ee4d47)"
        opacity="0.2"
        d="M10.447 15.499l0.016 0.097 3.8-0.625-0.016-0.097-3.8 0.625z"
      />
<path
        fill="#ee4d47"
        style="fill: var(--color21, #ee4d47)"
        opacity="0.2"
        d="M10.487 15.745l0.016 0.097 3.8-0.625-0.016-0.097-3.8 0.625z"
      />
<path
        fill="#ee4d47"
        style="fill: var(--color21, #ee4d47)"
        opacity="0.2"
        d="M12.428 15.671l0.016 0.097 1.903-0.313-0.016-0.097-1.903 0.313z"
      />
<path
        fill="#ee4d47"
        style="fill: var(--color21, #ee4d47)"
        opacity="0.2"
        d="M10.527 15.985l0.016 0.097 1.782-0.293-0.016-0.097-1.782 0.293z"
      />
<path
        fill="#ee4d47"
        style="fill: var(--color21, #ee4d47)"
        opacity="0.2"
        d="M10.691 16.987l0.016 0.097 3.8-0.625-0.016-0.097-3.8 0.625z"
      />
<path
        fill="#ee4d47"
        style="fill: var(--color21, #ee4d47)"
        opacity="0.2"
        d="M10.732 17.239l0.016 0.097 3.8-0.625-0.016-0.097-3.8 0.625z"
      />
<path
        fill="#ee4d47"
        style="fill: var(--color21, #ee4d47)"
        opacity="0.2"
        d="M12.673 17.166l0.016 0.097 1.903-0.313-0.016-0.097-1.903 0.313z"
      />
<path
        fill="#ee4d47"
        style="fill: var(--color21, #ee4d47)"
        opacity="0.2"
        d="M10.772 17.479l0.016 0.097 1.782-0.293-0.016-0.097-1.782 0.293z"
      />
<path
        fill="#ee4d47"
        style="fill: var(--color21, #ee4d47)"
        opacity="0.2"
        d="M10.931 18.466l0.016 0.097 3.8-0.625-0.016-0.097-3.8 0.625z"
      />
<path
        fill="#ee4d47"
        style="fill: var(--color21, #ee4d47)"
        opacity="0.2"
        d="M10.971 18.712l0.016 0.097 3.8-0.625-0.016-0.097-3.8 0.625z"
      />
<path
        fill="#ee4d47"
        style="fill: var(--color21, #ee4d47)"
        opacity="0.2"
        d="M12.912 18.639l0.016 0.097 1.903-0.313-0.016-0.097-1.903 0.313z"
      />
<path
        fill="#ee4d47"
        style="fill: var(--color21, #ee4d47)"
        opacity="0.2"
        d="M11.017 18.951l0.016 0.097 1.782-0.293-0.016-0.097-1.782 0.293z"
      />
<path
        fill="#ee4d47"
        style="fill: var(--color21, #ee4d47)"
        opacity="0.2"
        d="M8.154 12.459l-0.046 0.006 0.006 0.046 0.143 0.87 0.006 0.046 0.046-0.006 0.933-0.154 0.046-0.006-0.006-0.046-0.143-0.869-0.006-0.046-0.046 0.006-0.933 0.154zM9.185 13.187l-0.847 0.137-0.131-0.782 0.842-0.135 0.137 0.781z"
      />
<path
        fill="#ee4d47"
        style="fill: var(--color21, #ee4d47)"
        opacity="0.2"
        d="M8.42 14.101l-0.046 0.006 0.012 0.045 0.143 0.87 0.006 0.046 0.046-0.006 0.933-0.154 0.046-0.006-0.006-0.046-0.143-0.87-0.006-0.046-0.046 0.006-0.938 0.155zM9.451 14.829l-0.842 0.135-0.131-0.782 0.842-0.135 0.131 0.782z"
      />
<path
        fill="#ee4d47"
        style="fill: var(--color21, #ee4d47)"
        opacity="0.2"
        d="M8.679 15.673l-0.046 0.006 0.006 0.046 0.143 0.869 0.006 0.046 0.046-0.006 0.933-0.154 0.046-0.006-0.006-0.046-0.143-0.869-0.006-0.046-0.046 0.006-0.933 0.154zM9.709 16.401l-0.842 0.135-0.131-0.782 0.842-0.135 0.131 0.782z"
      />
<path
        fill="#ee4d47"
        style="fill: var(--color21, #ee4d47)"
        opacity="0.2"
        d="M8.94 17.256l-0.046 0.006 0.006 0.046 0.144 0.875 0.006 0.046 0.046-0.006 0.933-0.154 0.046-0.006-0.006-0.046-0.143-0.869-0.006-0.046-0.046 0.006-0.934 0.148zM9.971 17.984l-0.842 0.135-0.131-0.782 0.842-0.135 0.131 0.782z"
      />
<path
        fill="#ee4d47"
        style="fill: var(--color21, #ee4d47)"
        opacity="0.2"
        d="M9.193 18.782l-0.046 0.006 0.006 0.046 0.143 0.869 0.006 0.046 0.046-0.006 0.933-0.154 0.046-0.006-0.006-0.046-0.143-0.869-0.006-0.046-0.046 0.006-0.933 0.154zM10.222 19.504l-0.842 0.135-0.132-0.782 0.842-0.135 0.132 0.782z"
      />
<path
        fill="#ee4d47"
        style="fill: var(--color21, #ee4d47)"
        d="M8.735 12.875l-0.487-0.29-0.055 0.087 0.578 0.338 0.025-0.043 0.658-1.066-0.085-0.049-0.634 1.023z"
      />
<path
        fill="#f58a6b"
        style="fill: var(--color12, #f58a6b)"
        d="M9.012 14.562l-0.487-0.29-0.055 0.087 0.535 0.314 0.041 0.019 0.026-0.037 0.657-1.072-0.085-0.049-0.632 1.029z"
      />
<path
        fill="#f58a6b"
        style="fill: var(--color12, #f58a6b)"
        d="M9.544 17.78l-0.492-0.289-0.049 0.085 0.529 0.315 0.043 0.025 0.025-0.043 0.664-1.068-0.087-0.055-0.632 1.029z"
      />
<path
        fill="#fafbfc"
        style="fill: var(--color29, #fafbfc)"
        d="M8.158 22.774c-0.051 0.014-0.079 0.063-0.066 0.114s0.063 0.079 0.114 0.066c0.051-0.014 0.079-0.063 0.066-0.114s-0.063-0.079-0.114-0.066z"
      />
<path
        fill="#fafbfc"
        style="fill: var(--color29, #fafbfc)"
        d="M9.543 22.378c0.035-0.016 0.051-0.057 0.035-0.092s-0.057-0.051-0.092-0.035-0.051 0.057-0.035 0.092c0.016 0.035 0.057 0.051 0.092 0.035z"
      />
<path
        fill="#fafbfc"
        style="fill: var(--color29, #fafbfc)"
        d="M11.465 21.81c0.028-0.008 0.044-0.036 0.037-0.064s-0.036-0.044-0.064-0.037c-0.028 0.007-0.044 0.036-0.037 0.064s0.036 0.044 0.064 0.037z"
      />
<path
        fill="#fafbfc"
        style="fill: var(--color29, #fafbfc)"
        d="M12.465 21.614c-0.045 0.012-0.070 0.055-0.057 0.1s0.055 0.070 0.1 0.058c0.045-0.012 0.069-0.055 0.057-0.1-0.011-0.039-0.055-0.070-0.1-0.058z"
      />
<path
        fill="#fafbfc"
        style="fill: var(--color29, #fafbfc)"
        d="M13.985 21.273c-0.017 0.005-0.025 0.019-0.021 0.036s0.019 0.025 0.036 0.021c0.017-0.005 0.025-0.019 0.021-0.036 0.001-0.018-0.019-0.025-0.036-0.021z"
      />
<path
        fill="#fafbfc"
        style="fill: var(--color29, #fafbfc)"
        d="M17.125 20.245c-0.028 0.008-0.039 0.034-0.033 0.057 0.008 0.028 0.034 0.039 0.057 0.033 0.028-0.008 0.039-0.034 0.033-0.057-0-0.024-0.029-0.040-0.057-0.033z"
      />
<path
        fill="#fff"
        style="fill: var(--color15, #fff)"
        d="M22.361 11.219c0-0.521-0.422-0.943-0.943-0.943h-3.557c-0.521 0-0.943 0.422-0.943 0.943v0.49c0 0.521 0.422 0.943 0.943 0.943h4.5v-1.433z"
      />
<path
        fill="#f4a984"
        style="fill: var(--color30, #f4a984)"
        d="M20.948 11.479c0 0.1 0.081 0.18 0.18 0.18s0.18-0.081 0.18-0.18c0-0.1-0.081-0.18-0.18-0.18s-0.18 0.081-0.18 0.18z"
      />
<path
        fill="#f4a984"
        style="fill: var(--color30, #f4a984)"
        d="M20.196 11.479c0 0.1 0.081 0.18 0.18 0.18s0.18-0.081 0.18-0.18c0-0.1-0.081-0.18-0.18-0.18s-0.18 0.081-0.18 0.18z"
      />
<path
        fill="#f4a984"
        style="fill: var(--color30, #f4a984)"
        d="M19.445 11.479c0 0.1 0.081 0.18 0.18 0.18s0.18-0.081 0.18-0.18c0-0.1-0.081-0.18-0.18-0.18s-0.18 0.081-0.18 0.18z"
      />
<path
        fill="#f4a984"
        style="fill: var(--color30, #f4a984)"
        d="M18.693 11.479c0 0.1 0.081 0.18 0.18 0.18s0.18-0.081 0.18-0.18c0-0.1-0.081-0.18-0.18-0.18s-0.18 0.081-0.18 0.18z"
      />
<path
        fill="#f4a984"
        style="fill: var(--color30, #f4a984)"
        d="M17.941 11.479c0 0.1 0.081 0.18 0.18 0.18s0.18-0.081 0.18-0.18c0-0.1-0.081-0.18-0.18-0.18s-0.18 0.081-0.18 0.18z"
      />
<path
        fill="#402b2b"
        style="fill: var(--color4, #402b2b)"
        d="M15.317 19.113c-2.055 0-1.013-2.969-0.236-4.454 0.416-0.314 1.437-0.947 2.191-0.966s1.225 0.919 1.367 1.39c-0.086 0.008-0.174 0.368 0.165 1.744s0.173 2.097 0.047 2.286h-3.535z"
      />
<path
        fill="#000"
        style="fill: var(--color3, #000)"
        d="M17.466 18.408c-0.194-0.339-0.048-0.863-0.048-0.863l-0.598 0.121-0.598-0.121c0 0 0.073 0.25 0.048 0.524 0.21 0.242 0.695 0.694 1.195 0.339z"
      />
<path
        fill="#000"
        style="fill: var(--color3, #000)"
        d="M17.381 17.734c-0.131 0.079-0.296 0.152-0.481 0.208-0.232 0.070-0.453 0.101-0.627 0.094 0.016-0.261-0.051-0.491-0.051-0.491l0.598 0.121 0.598-0.121c0 0-0.021 0.076-0.036 0.189z"
      />
<path
        fill="#000"
        style="fill: var(--color3, #000)"
        d="M15.358 18.884c0.347 0.307 1.034 0.976 1.47 0.976s1.211-0.637 1.559-0.944c-0.17-0.065-0.686-0.266-0.808-0.371-0.040-0.040-0.081-0.089-0.105-0.137-0.501 0.355-0.985-0.097-1.195-0.347-0.016 0.177-0.065 0.355-0.202 0.476-0.137 0.113-0.557 0.282-0.719 0.347z"
      />
<path
        fill="#000"
        style="fill: var(--color3, #000)"
        d="M18.464 15.714c-0.057-0.105-0.145-0.121-0.202-0.105 0 0-0.162-0.516-0.275-0.895-0.38-0.178-0.735-0.331-1.163-0.363v-0.008c-0.065 0-0.178 0-0.242 0-0.266 0.008-0.533 0.016-0.791 0.065-0.065 0.016-0.129 0.032-0.194 0.032-0.081 0.428-0.218 1.178-0.275 1.17h-0.008c-0.008 0-0.008 0-0.016-0.008-0.056-0.016-0.121 0-0.178 0.097-0.097 0.178 0 0.532 0.129 0.637 0.065 0.048 0.121 0.089 0.162 0.113 0.065 0.323 0.178 0.629 0.347 0.815 0.444 0.476 0.856 0.581 0.969 0.597 0.008 0 0.024 0 0.032 0 0 0 0.008 0 0.016 0 0.081-0.008 0.525-0.089 1.001-0.605 0.17-0.177 0.291-0.307 0.363-0.782 0.048-0.024 0.097-0.065 0.178-0.129 0.145-0.097 0.242-0.452 0.145-0.629z"
      />
<path
        fill="#d87c60"
        style="fill: var(--color24, #d87c60)"
        d="M16.812 16.167c0 0 0.006 0.182-0.043 0.242s-0.142 0.118-0.15 0.162c-0.009 0.036 0.030 0.1 0.098 0.115s0.079 0.040 0.079 0.040-0.126 0.037-0.204-0.047c-0.079-0.084-0.019-0.171 0.038-0.223s0.083-0.074 0.108-0.104c0.032-0.031 0.074-0.185 0.074-0.185z"
      />
<path
        fill="#d87c60"
        style="fill: var(--color24, #d87c60)"
        d="M17.299 16.969h-0.976c-0.032 0-0.054 0.031-0.042 0.060 0.069 0.157 0.238 0.388 0.519 0.388 0.28 0 0.461-0.229 0.539-0.386 0.015-0.029-0.008-0.062-0.041-0.062z"
      />
<path
        fill="#fff"
        style="fill: var(--color15, #fff)"
        d="M17.295 17.11h-0.971c-0.017-0.028-0.030-0.056-0.042-0.081-0.013-0.029 0.010-0.060 0.042-0.060h0.976c0.033 0 0.055 0.033 0.041 0.062-0.012 0.025-0.027 0.052-0.045 0.079z"
      />
<path
        fill="#402b2b"
        style="fill: var(--color4, #402b2b)"
        d="M17.748 13.761c1.203 0.153 0.921 1.621 0.686 1.88l-0.173 0.291c-0.086-0.149-0.264-0.561-0.283-1.013-0.181 0.118-0.721 0.353-1.437 0.353-0.895 0-1.141 0.148-1.225 0.566-0.21-0.468-0.354-1.415 0.162-1.947 0.711-0.742 1.785-0.92 2.269-0.129z"
      />
<path
        fill="#ed8a40"
        style="fill: var(--color31, #ed8a40)"
        d="M15.318 15.835l0.040 0.347c0 0-0.121-0.065-0.145-0.226-0.008-0.097 0.032-0.161 0.105-0.121z"
      />
<path
        fill="#ed8a40"
        style="fill: var(--color31, #ed8a40)"
        d="M18.249 15.835l-0.040 0.347c0 0 0.121-0.065 0.145-0.226 0.008-0.097-0.024-0.161-0.105-0.121z"
      />
<path
        fill="#402b2b"
        style="fill: var(--color4, #402b2b)"
        d="M17.611 16.227c0 0.073-0.056 0.137-0.137 0.137-0.073 0-0.137-0.056-0.137-0.137 0-0.073 0.057-0.137 0.137-0.137s0.137 0.065 0.137 0.137z"
      />
<path
        fill="#402b2b"
        style="fill: var(--color4, #402b2b)"
        d="M16.174 16.364c0.076 0 0.137-0.061 0.137-0.137s-0.061-0.137-0.137-0.137c-0.076 0-0.137 0.061-0.137 0.137s0.061 0.137 0.137 0.137z"
      />
<path
        fill="#000"
        style="fill: var(--color3, #000)"
        d="M19.703 20.715c0.032-0.871-0.234-1.387-0.638-1.605s-1.357-0.492-1.389-0.5l-0.864 0.686-0.824-0.686c-0.032 0.008-1.009 0.282-1.405 0.5-0.404 0.218-0.67 0.734-0.638 1.605 0.024 0.702-0.024 1.807-0.016 2.614h5.798c0-0.807-0.048-1.912-0.024-2.614z"
      />
<path
        fill="#ee4d47"
        style="fill: var(--color21, #ee4d47)"
        opacity="0.29"
        d="M17.288 18.908l-0.226-0.105-0.258 0.476-0.258-0.476-0.234 0.105 0.339 0.549v3.872h0.315v-3.896l0.323-0.524z"
      />
<path
        fill="#fff"
        style="fill: var(--color15, #fff)"
        d="M16.27 18.061c-0.008 0.234 0.323 0.839 0.323 0.839l-0.573 0.557-0.186-0.807c0 0 0.186-0.492 0.436-0.589z"
      />
<path
        fill="#fff"
        style="fill: var(--color15, #fff)"
        d="M17.369 18.061c0.008 0.234-0.363 0.847-0.363 0.847l0.606 0.549 0.186-0.815c0 0-0.178-0.484-0.428-0.581z"
      />
<path
        fill="#fff"
        style="fill: var(--color15, #fff)"
        d="M16.9 19.594c0 0.048-0.040 0.089-0.089 0.089s-0.089-0.040-0.089-0.089c0-0.048 0.040-0.089 0.089-0.089s0.089 0.040 0.089 0.089z"
      />
<path
        fill="#fff"
        style="fill: var(--color15, #fff)"
        d="M16.9 20.417c0 0.048-0.040 0.089-0.089 0.089s-0.089-0.040-0.089-0.089c0-0.048 0.040-0.089 0.089-0.089s0.089 0.032 0.089 0.089z"
      />
<path
        fill="#fff"
        style="fill: var(--color15, #fff)"
        d="M16.9 21.223c0 0.048-0.040 0.089-0.089 0.089s-0.089-0.040-0.089-0.089c0-0.048 0.040-0.089 0.089-0.089s0.089 0.040 0.089 0.089z"
      />
<path
        fill="#fff"
        style="fill: var(--color15, #fff)"
        d="M16.9 22.119c0 0.048-0.040 0.089-0.089 0.089s-0.089-0.040-0.089-0.089c0-0.048 0.040-0.089 0.089-0.089s0.089 0.040 0.089 0.089z"
      />
<path
        fill="#000"
        style="fill: var(--color3, #000)"
        d="M14.074 19.352c0 0-0.856 2.299-0.921 2.678-0.057 0.379 0.428 1.258 0.654 1.291 0.331 0.048 0.598-0.048 0.929-0.613 0.323-0.565 0.267-2.977 0.267-2.977l-0.929-0.379z"
      />
<path
        fill="#ee4d47"
        style="fill: var(--color21, #ee4d47)"
        opacity="0.29"
        d="M15.011 19.505c0 0-0.057 2.775-0.178 3.122-0.194 0.557-0.686 0.71-0.686 0.71h0.549c0 0 0.428-0.282 0.468-1.129 0.024-0.508-0.065-2.13-0.113-2.67-0.016-0.145-0.040-0.032-0.040-0.032z"
      />
<path
        fill="#fff"
        style="fill: var(--color15, #fff)"
        d="M15.2 19.243l-0.928-0.375-0.194 0.479 0.928 0.375 0.194-0.479z"
      />
<path
        fill="#ee4d47"
        style="fill: var(--color21, #ee4d47)"
        opacity="0.29"
        d="M18.709 19.9c0 0-0.331 1.573-0.355 2.218s0 1.202 0 1.202l0.234 0.016c0 0 0.057-2.823 0.121-3.436z"
      />
<path
        fill="#fff"
        style="fill: var(--color15, #fff)"
        d="M15.899 17.722c-0.444 0-0.59-0.218-0.678-0.549-0.040-0.177-0.056-0.653-0.056-0.67h0.129c0 0.008 0.016 0.484 0.057 0.645 0.081 0.315 0.202 0.476 0.638 0.444l0.008 0.129c-0.032 0-0.065 0-0.097 0z"
      />
<path
        fill="#fff"
        style="fill: var(--color15, #fff)"
        d="M16.812 13.334c-0.355-0.032-1.171-0.008-1.542 0.702 0 0 0.097 0.169 0.21 0.056 0.404-0.363 0.969-0.371 1.316-0.371 0.355 0 0.945 0 1.341 0.371 0.121 0.105 0.21-0.056 0.21-0.056-0.363-0.71-1.179-0.734-1.534-0.702z"
      />
<path
        fill="#000"
        style="fill: var(--color3, #000)"
        d="M18.725 15.77c0 0-0.016-0.492-0.024-0.629-0.016-0.266-0.056-0.702-0.145-0.936-0.291-0.799-1.236-0.952-1.728-0.952-0.501 0-1.462 0.153-1.752 0.944-0.081 0.226-0.121 0.629-0.145 0.903-0.008 0.161-0.016 0.662-0.016 0.662h0.137c0 0 0-0.5 0.016-0.662 0.016-0.21 0.056-0.516 0.162-0.807 0.242-0.686 1.139-0.758 1.575-0.758 0.444 0 1.357 0.073 1.599 0.758 0.113 0.323 0.153 0.653 0.17 0.863 0.008 0.137 0.016 0.613 0.016 0.613h0.137z"
      />
<path
        fill="#fff"
        style="fill: var(--color15, #fff)"
        d="M15.083 15.673h-0.178v0.758h0.178v-0.758z"
      />
<path
        fill="#000"
        style="fill: var(--color3, #000)"
        d="M15.398 16.577h-0.202c-0.097 0-0.178-0.081-0.178-0.177v-0.694c0-0.097 0.081-0.178 0.178-0.178h0.202c0.024 0 0.040 0.016 0.040 0.040v0.96c0 0.024-0.016 0.048-0.040 0.048z"
      />
<path
        fill="#000"
        style="fill: var(--color3, #000)"
        d="M14.833 16.496h-0.008c-0.040 0-0.073-0.032-0.073-0.073v-0.758c0-0.040 0.032-0.073 0.073-0.073h0.008c0.040 0 0.073 0.032 0.073 0.073v0.758c0 0.040-0.032 0.073-0.073 0.073z"
      />
<path
        fill="#fff"
        style="fill: var(--color15, #fff)"
        d="M18.53 16.445h0.178v-0.758h-0.178v0.758z"
      />
<path
        fill="#000"
        style="fill: var(--color3, #000)"
        d="M18.225 16.593h0.202c0.097 0 0.178-0.081 0.178-0.177v-0.694c0-0.097-0.081-0.178-0.178-0.178h-0.202c-0.024 0-0.040 0.016-0.040 0.040v0.96c-0.008 0.024 0.016 0.048 0.040 0.048z"
      />
<path
        fill="#000"
        style="fill: var(--color3, #000)"
        d="M18.782 16.512h0.008c0.040 0 0.073-0.032 0.073-0.073v-0.758c0-0.040-0.032-0.073-0.073-0.073h-0.008c-0.040 0-0.073 0.032-0.073 0.073v0.758c0 0.040 0.032 0.073 0.073 0.073z"
      />
<path
        fill="#000"
        style="fill: var(--color3, #000)"
        d="M16.375 17.642c0 0.081-0.097 0.153-0.226 0.153-0.121 0-0.226-0.065-0.226-0.153s0.097-0.153 0.226-0.153c0.121 0 0.226 0.065 0.226 0.153z"
      />
<path
        fill="#000"
        style="fill: var(--color3, #000)"
        d="M14.688 17.125l0-0c0.075-0.070 0.161-0.119 0.244-0.16 0.149-0.096 0.322-0.205 0.386-0.235 0.129-0.065 0.21 0.048 0.024 0.21-0.040 0.035-0.087 0.072-0.136 0.109 0.101-0.039 0.19-0.072 0.232-0.085 0.137-0.040 0.202 0.089-0.016 0.21-0.089 0.049-0.2 0.102-0.301 0.148l0.035 0.11c0 0 0.097-0.089 0.129-0.113 0.202-0.137 0.307-0.024 0.218 0.097-0.097 0.121-0.242 0.468-0.194 0.71 0.032 0.161 0.008 0.387-0.032 0.565-0.040 0.169-0.291 0.67-0.291 0.67l-0.646-0.226c0 0 0.145-0.153 0.121-0.524-0.007-0.122-0.056-0.25-0.104-0.377-0.060-0.16-0.121-0.318-0.098-0.462 0.040-0.226 0.371-0.589 0.428-0.645h-0z"
      />
<path
        fill="#eb5046"
        style="fill: var(--color32, #eb5046)"
        opacity="0.3"
        d="M15.269 18.093c0.016-0.202 0-0.242-0.016-0.339-0.016-0.113 0.008-0.258-0.040-0.363-0.056-0.113-0.145-0.177-0.299-0.145-0.202 0.048-0.283 0.153-0.283 0.153s0.162-0.065 0.242-0.089c0.121-0.032 0.242-0.024 0.291 0.121 0.024 0.089 0.040 0.21 0.057 0.298 0.008 0.065 0.056 0.347 0.016 0.355-0.040 0-0.129-0.024-0.17-0.169-0.008 0.032-0.016 0.25-0.040 0.25-0.145-0.016-0.162-0.129-0.17-0.25 0-0.056-0.008-0.137-0.024-0.242-0.057 0.089-0.194 0.169-0.25 0.21 0.065 0.056 0.186 0.194 0.234 0.25 0.089 0.105 0.17 0.266 0.186 0.436 0.218-0.21 0.097-0.428 0.089-0.5 0.057 0.065 0.17 0.113 0.178 0.024z"
      />
<path
        fill="#000"
        style="fill: var(--color3, #000)"
        d="M24.427 18.093c0-0.121-0.097-0.21-0.226-0.21h-5.968c-0.121 0-0.226 0.097-0.226 0.21v3.711h6.412v-3.711h0.008z"
      />
<path
        fill="#ca3f3a"
        style="fill: var(--color33, #ca3f3a)"
        d="M18.241 22.506h5.968c0.121 0 0.226-0.097 0.226-0.21v-0.484h-6.412v0.484c-0.008 0.113 0.097 0.21 0.218 0.21z"
      />
<path
        fill="#ca3f3a"
        style="fill: var(--color33, #ca3f3a)"
        d="M22.158 22.417h-1.599v0.758h1.599v-0.758z"
      />
<path
        fill="#000"
        style="fill: var(--color3, #000)"
        d="M22.351 22.417h-1.599v0.758h1.599v-0.758z"
      />
<path
        fill="#000"
        style="fill: var(--color3, #000)"
        d="M22.085 23.103h-1.979v0.218h1.979v-0.218z"
      />
<path
        fill="#000"
        style="fill: var(--color3, #000)"
        d="M22.731 23.103h-1.979v0.218h1.979v-0.218z"
      />
<path
        fill="#000"
        style="fill: var(--color3, #000)"
        d="M24.758 18.093c0-0.121-0.097-0.21-0.226-0.21h-5.96c-0.121 0-0.226 0.097-0.226 0.21v3.711h6.412v-3.711z"
      />
<path
        fill="#000"
        style="fill: var(--color3, #000)"
        d="M18.572 22.506h5.968c0.121 0 0.226-0.097 0.226-0.21v-0.484h-6.412v0.484c-0.008 0.113 0.089 0.21 0.218 0.21z"
      />
<path
        fill="#fff"
        style="fill: var(--color15, #fff)"
        opacity="0.2"
        d="M22.133 19.505c0 0.323-0.258 0.581-0.581 0.581s-0.581-0.258-0.581-0.581c0-0.323 0.258-0.581 0.581-0.581s0.581 0.258 0.581 0.581z"
      />
<path
        fill="#000"
        style="fill: var(--color3, #000)"
        d="M16.715 23.103h-1.381v0.21h1.381v-0.21z"
      />
<path
        fill="#000"
        style="fill: var(--color3, #000)"
        d="M19.008 23.103h-2.899v0.21h2.899v-0.21z"
      />
<path
        fill="#fcddd4"
        style="fill: var(--color1, #fcddd4)"
        d="M27.994 21.727h-3.77v1.599h3.77v-1.599z"
      />
<path
        fill="#f37753"
        style="fill: var(--color26, #f37753)"
        d="M26.13 21.31v0.004c0.030-0.083 0.090-0.216 0.191-0.414 0.2-0.379 0.423-0.67 0.423-0.67s-0.098 0.324-0.298 0.703c-0.177 0.339-0.274 0.476-0.316 0.497v0.019c0.051-0.067 0.164-0.183 0.363-0.364 0.33-0.296 0.655-0.508 0.655-0.508s-0.209 0.273-0.539 0.573c-0.194 0.174-0.322 0.278-0.402 0.331 0.082-0.050 0.208-0.12 0.393-0.211 0.409-0.203 0.781-0.328 0.781-0.328s-0.288 0.208-0.697 0.411c-0.312 0.158-0.48 0.226-0.553 0.238v0.014c0.066-0.036 0.233-0.095 0.553-0.183 0.451-0.125 0.846-0.18 0.846-0.18s-0.344 0.152-0.795 0.277c-0.147 0.041-0.264 0.071-0.356 0.091 0.093-0.015 0.213-0.032 0.366-0.050 0.479-0.060 0.879-0.055 0.879-0.055s-0.377 0.102-0.855 0.157c-0.386 0.048-0.575 0.055-0.637 0.041v0.010h-0.047v-0.007c-0.009 0.003-0.021 0.005-0.037 0.007h-0.135c-0.102-0.005-0.256-0.014-0.47-0.042-0.479-0.060-0.855-0.157-0.855-0.157s0.4-0.005 0.879 0.055c0.144 0.017 0.259 0.032 0.35 0.046-0.089-0.021-0.202-0.049-0.341-0.088-0.456-0.125-0.795-0.277-0.795-0.277s0.395 0.055 0.846 0.18c0.328 0.091 0.496 0.15 0.558 0.186v-0.016c-0.070-0.012-0.239-0.080-0.558-0.239-0.409-0.203-0.697-0.411-0.697-0.411s0.372 0.125 0.781 0.328c0.173 0.086 0.295 0.152 0.377 0.201-0.081-0.056-0.206-0.158-0.386-0.322-0.33-0.3-0.539-0.573-0.539-0.573s0.325 0.208 0.655 0.508c0.142 0.129 0.24 0.225 0.303 0.294-0.054-0.070-0.138-0.209-0.261-0.442-0.2-0.379-0.298-0.703-0.298-0.703s0.228 0.291 0.423 0.67c0.113 0.219 0.174 0.359 0.2 0.44v-0.043c-0.025-0.057-0.042-0.223-0.042-0.554 0-0.425 0.065-0.772 0.065-0.772s0.065 0.347 0.065 0.772c0 0.33-0.017 0.496-0.042 0.554zM26.083 21.446c-0.007-0.001-0.016-0.006-0.027-0.016 0.011 0.013 0.020 0.024 0.027 0.034v-0.018zM26.083 21.533c-0.011-0.003-0.026-0.009-0.044-0.020 0.018 0.012 0.033 0.022 0.044 0.032v-0.012zM26.13 21.532c0.013-0.010 0.028-0.021 0.047-0.033-0.019 0.012-0.035 0.019-0.047 0.023v0.010zM26.083 21.659c-0.015 0.001-0.036-0-0.064-0.003 0.030 0.008 0.051 0.015 0.064 0.021v-0.018zM26.13 21.669c0.017-0.008 0.045-0.017 0.085-0.027-0.038 0.006-0.066 0.008-0.085 0.007v0.019z"
      />
<path
        fill="#f37753"
        style="fill: var(--color26, #f37753)"
        d="M25.856 21.713h-0.869c0.135-0.009 0.298-0.014 0.47-0.014 0.167 0 0.302 0.005 0.4 0.014z"
      />
<path
        fill="#f37753"
        style="fill: var(--color26, #f37753)"
        d="M26.353 21.713h0.869c-0.135-0.009-0.298-0.018-0.47-0.014s-0.302 0.009-0.4 0.014z"
      />
<path
        fill="#f69477"
        style="fill: var(--color34, #f69477)"
        d="M20.124 14.094c0-0.521 0.422-0.943 0.943-0.943h5.308c0.521 0 0.943 0.422 0.943 0.943v1.254c0 0.521-0.422 0.943-0.943 0.943h-6.25v-2.197z"
      />
<path
        fill="#fff"
        style="fill: var(--color15, #fff)"
        opacity="0.5"
        d="M21.991 14.741c0 0.132-0.107 0.238-0.238 0.238s-0.238-0.107-0.238-0.238c0-0.132 0.107-0.238 0.238-0.238s0.238 0.107 0.238 0.238z"
      />
<path
        fill="#fff"
        style="fill: var(--color15, #fff)"
        opacity="0.5"
        d="M22.985 14.741c0 0.132-0.107 0.238-0.238 0.238s-0.238-0.107-0.238-0.238c0-0.132 0.107-0.238 0.238-0.238s0.238 0.107 0.238 0.238z"
      />
<path
        fill="#fff"
        style="fill: var(--color15, #fff)"
        opacity="0.5"
        d="M23.978 14.741c0 0.132-0.107 0.238-0.238 0.238s-0.238-0.107-0.238-0.238c0-0.132 0.107-0.238 0.238-0.238s0.238 0.107 0.238 0.238z"
      />
<path
        fill="#fff"
        style="fill: var(--color15, #fff)"
        opacity="0.5"
        d="M24.972 14.741c0 0.132-0.107 0.238-0.238 0.238s-0.238-0.107-0.238-0.238c0-0.132 0.107-0.238 0.238-0.238s0.238 0.107 0.238 0.238z"
      />
<path
        fill="#fff"
        style="fill: var(--color15, #fff)"
        opacity="0.5"
        d="M25.965 14.741c0 0.132-0.107 0.238-0.238 0.238s-0.238-0.107-0.238-0.238c0-0.132 0.107-0.238 0.238-0.238s0.238 0.107 0.238 0.238z"
      />
</symbol>
<symbol id="icon-illustration3" viewBox="0 0 46 32">
<path
        fill="#fcddd4"
        style="fill: var(--color1, #fcddd4)"
        d="M41.744 24.537c4.206-4.589 5.736-13.861 0-15.136-8.505-1.89-4.302 4.78-25.174 1.275-12.931-2.172-11.95 10.675-4.78 17.845s24.696 1.753 29.954-3.983z"
      />
<path
        fill="#402b2b"
        style="fill: var(--color4, #402b2b)"
        d="M50.312 28.714c0 1.769-1.018 3.198-2.27 3.198h-2.27c-1.252 0-2.259-1.441-2.259-3.198 0-1.769 1.018-3.198 2.27-3.198 0.023 0 0.035 0 0.059 0h2.2c1.264 0 2.27 1.441 2.27 3.198z"
      />
<path
        fill="#f48767"
        style="fill: var(--color5, #f48767)"
        d="M32.523 28.679c0 1.769-1.018 3.198-2.27 3.198h-2.27c-1.252 0-2.259-1.441-2.259-3.198 0-1.769 1.018-3.198 2.27-3.198 0.023 0 0.035 0 0.059 0h2.2c1.264 0 2.27 1.429 2.27 3.198z"
      />
<path
        fill="#402b2b"
        style="fill: var(--color4, #402b2b)"
        d="M50.464 28.409l-9.14-0.023 1.053-0.621 6.917 0.012 1.17 0.633z"
      />
<path
        fill="#f36f49"
        style="fill: var(--color6, #f36f49)"
        d="M59.089 23.196l-0.012 5.87-7.42-0.012-2.364-1.277-6.917-0.012-2.13 1.265-15.097-0.035c-0.246 0-0.445-0.199-0.445-0.445l0.012-5.424 34.373 0.070z"
      />
<path
        fill="#f48767"
        style="fill: var(--color5, #f48767)"
        d="M42.915 24.531l-11.844-0.023 0.023-10.743c0-0.433 0.351-0.785 0.796-0.785l11.060 0.023-0.035 11.528z"
      />
<path
        fill="#f06a5b"
        style="fill: var(--color7, #f06a5b)"
        d="M61.383 24.578l-18.456-0.035 0.023-11.528 17.672 0.035c0.433 0 0.784 0.351 0.784 0.797l-0.023 10.732z"
      />
<path
        fill="#f48767"
        style="fill: var(--color5, #f48767)"
        d="M34.021 28.679c0 1.769 1.006 3.198 2.259 3.198h2.259v-1.078c0.831 0 1.51-0.949 1.51-2.12s-0.667-2.121-1.498-2.121v-1.078h-2.259c-1.252 0.012-2.259 1.441-2.27 3.198z"
      />
<path
        fill="#f48767"
        style="fill: var(--color5, #f48767)"
        d="M40.41 28.702c0 1.453-0.831 2.624-1.861 2.613-1.030 0-1.849-1.172-1.849-2.624s0.831-2.624 1.861-2.613c1.018 0 1.849 1.172 1.849 2.624z"
      />
<path
        fill="#f7a58d"
        style="fill: var(--color8, #f7a58d)"
        d="M38.55 30.424c-0.679 0-1.217-0.773-1.217-1.734s0.55-1.722 1.229-1.722 1.217 0.773 1.217 1.734c0 0.961-0.55 1.722-1.229 1.722zM38.55 27.671c-0.398 0-0.726 0.457-0.726 1.019s0.328 1.031 0.726 1.031c0.398 0 0.726-0.457 0.726-1.019 0-0.574-0.316-1.031-0.726-1.031z"
      />
<path
        fill="#f7a58d"
        style="fill: var(--color8, #f7a58d)"
        d="M38.55 31.889c-1.252 0-2.259-1.441-2.259-3.198s1.018-3.198 2.27-3.198 2.259 1.441 2.259 3.198c0 1.757-1.030 3.21-2.27 3.198zM38.561 26.078c-1.030 0-1.861 1.172-1.861 2.613 0 1.453 0.819 2.624 1.849 2.624s1.861-1.172 1.861-2.613c0-1.453-0.831-2.624-1.849-2.624z"
      />
<path
        fill="#5b2929"
        style="fill: var(--color9, #5b2929)"
        d="M38.866 28.691c0-0.246-0.14-0.433-0.304-0.433s-0.304 0.199-0.316 0.433c0 0.246 0.14 0.433 0.304 0.433 0.176 0.012 0.316-0.187 0.316-0.433z"
      />
<path
        fill="#f69276"
        style="fill: var(--color10, #f69276)"
        d="M23.23 19.927c0 0.047-0.035 0.082-0.070 0.094-0.094 0.023-0.445 0.023-0.55-0.012-0.047-0.012-0.094-0.047-0.094-0.105-0.035-0.937-0.035-1.851 0-2.718 0-0.059 0.047-0.094 0.094-0.105 0.117-0.035 0.527-0.059 0.655-0.012 0.047 0.012 0.082 0.059 0.082 0.105 0.023 0.89-0.012 1.804-0.117 2.753z"
      />
<path
        fill="#f69276"
        style="fill: var(--color10, #f69276)"
        d="M23.804 20.759c-0.012 0-0.023 0-0.047-0.012l-0.796-0.398c-0.187-0.094-0.304-0.281-0.304-0.492l0.012-2.941c0-0.117 0.094-0.211 0.211-0.211h2.189c0.059 0 0.094 0.047 0.094 0.094 0 0.059-0.047 0.094-0.094 0.094h-2.189c-0.012 0-0.012 0.012-0.012 0.012l-0.012 2.941c0 0.141 0.082 0.258 0.199 0.316l0.796 0.398c0.047 0.023 0.070 0.082 0.047 0.129-0.023 0.059-0.059 0.070-0.094 0.070z"
      />
<path
        fill="#f36f49"
        style="fill: var(--color6, #f36f49)"
        d="M41.323 24.508c0 0-0.304 0-0.772 0h-1.861c-1.393 0-1.72 0.691-2.575 2.39l-2.703-0.012c0 0 0-0.199 0-0.539l-10.322-0.023c-0.047-0.855-0.14-2.589-0.14-4.229 0-0.059 0-0.105 0-0.164 0-0.469 0.082-0.984 0.222-1.5 0.55-2.015 1.943-4.159 2.516-4.944 0.187-0.258 0.351-0.48 0.491-0.68 0.398-0.527 0.667-0.797 1.17-0.797l12.511 0.035c0.257 0 0.492 0.176 0.562 0.422 1.077 3.96 0.913 6.971 0.901 10.040zM30.779 15.44c0.012-0.059-0.035-0.105-0.094-0.105l-3.804-0.012c-0.222 0-0.445 0.117-0.585 0.316-1.486 2.027-2.083 3.878-2.306 4.944l-0.234 1.125c-0.035 0.164 0.070 0.293 0.234 0.293h0.925c0.152 0 0.316-0.070 0.433-0.187l1.896-1.816c0.211-0.199 0.492-0.316 0.761-0.316h2.27l0.503-4.241z"
      />
<path
        fill="#f6977c"
        style="fill: var(--color11, #f6977c)"
        d="M32.745 20.466c-0.082 0.375-0.176 0.762-0.257 1.172-0.059 0.281-0.304 0.48-0.585 0.492-3.698 0.129-6.765 0.141-8.953-0.023 0-0.059 0-0.105 0-0.164 0-0.469 0.082-0.984 0.222-1.5l9.573 0.023z"
      />
<path
        fill="#f36f49"
        style="fill: var(--color6, #f36f49)"
        d="M39.58 15.347l-3.804-0.012c-0.222 0-0.421 0.117-0.527 0.316-1.065 2.027-1.287 3.878-1.287 4.944v1.125c0 0.164 0.129 0.293 0.293 0.293h0.925c0.152 0 0.304-0.070 0.398-0.187l1.521-1.816c0.176-0.199 0.421-0.328 0.691-0.316h2.27l-0.363-4.241c0-0.059-0.047-0.105-0.117-0.105z"
      />
<path
        fill="#f7a58d"
        style="fill: var(--color8, #f7a58d)"
        d="M41.323 24.508c0 0-0.304 0-0.772 0h-1.861c-1.393 0-1.72 0.691-2.575 2.39l-2.703-0.012c0 0 0-0.199 0-0.539l-10.322-0.023c-0.047-0.855-0.14-2.589-0.14-4.229 2.189 0.164 5.267 0.164 8.953 0.023 0.281-0.012 0.527-0.211 0.585-0.492 0.082-0.41 0.176-0.808 0.257-1.172 0.503-2.144 1.053-3.679 1.779-5.342 0.058-0.129-0.035-0.281-0.176-0.281l-8.169-0.023c0.398-0.527 0.667-0.797 1.17-0.797l12.511 0.035c0.257 0 0.492 0.176 0.562 0.422 1.077 3.96 0.913 6.971 0.901 10.040zM40.071 19.693l-0.363-4.241c0-0.059-0.059-0.105-0.117-0.105l-3.804-0.012c-0.222 0-0.421 0.117-0.527 0.316-1.065 2.027-1.287 3.878-1.287 4.944v1.125c0 0.164 0.129 0.293 0.293 0.293h0.925c0.152 0 0.304-0.070 0.398-0.187l1.521-1.816c0.176-0.199 0.421-0.328 0.691-0.316h2.27z"
      />
<path
        fill="#f58a6b"
        style="fill: var(--color12, #f58a6b)"
        d="M40.867 24.203c0 0.176-0.14 0.305-0.316 0.305h-1.861c-1.393 0-1.72 0.691-2.575 2.39l-2.703-0.012c0 0 0-0.199 0-0.539l0.012-4.745c0-2.355 0.421-3.843 1.533-6.198 0.164-0.351 0.527-0.574 0.913-0.574l4.026 0.012c0.094 0 0.164 0.059 0.187 0.141 0.796 3.023 0.796 7.943 0.784 9.22zM40.071 19.693l-0.363-4.241c0-0.059-0.059-0.105-0.117-0.105l-3.804-0.012c-0.222 0-0.421 0.117-0.527 0.316-1.065 2.027-1.287 3.878-1.287 4.944v1.125c0 0.164 0.129 0.293 0.293 0.293h0.925c0.152 0 0.304-0.070 0.398-0.187l1.521-1.816c0.176-0.199 0.421-0.328 0.691-0.316h2.27z"
      />
<path
        fill="#f7a58d"
        style="fill: var(--color8, #f7a58d)"
        d="M39.556 15.487l-3.78-0.012c-0.164 0-0.316 0.094-0.398 0.234-1.1 2.097-1.276 3.96-1.276 4.874v1.125c0 0.082 0.070 0.152 0.152 0.152h0.925c0.117 0 0.222-0.047 0.293-0.129l1.521-1.816c0.199-0.234 0.492-0.375 0.808-0.375h2.107l-0.351-4.054zM39.58 15.347c0.059 0 0.117 0.047 0.117 0.105l0.363 4.241h-2.27c-0.269 0-0.515 0.117-0.691 0.316l-1.521 1.816c-0.094 0.117-0.246 0.187-0.398 0.187h-0.925c-0.164 0-0.293-0.129-0.293-0.293v-1.125c0-1.066 0.222-2.917 1.287-4.944 0.105-0.199 0.304-0.316 0.527-0.316l3.804 0.012z"
      />
<path
        fill="#f6977c"
        style="fill: var(--color11, #f6977c)"
        d="M33.424 24.11v2.238l-4.084-0.012c0.047-0.586 0.152-1.148 0.328-1.675 0.070-0.211 0.246-0.363 0.468-0.398 0.901-0.105 2.048-0.152 3.289-0.152zM25.161 26.336h-2.025c-0.035-0.492-0.070-1.289-0.105-2.191 0.492 0.023 0.948 0.070 1.358 0.129 0.222 0.035 0.398 0.187 0.468 0.398 0.164 0.515 0.257 1.078 0.304 1.664z"
      />
<path
        fill="#f6977c"
        style="fill: var(--color11, #f6977c)"
        d="M33.412 28.597l-9.468-0.023c-0.644 0-1.17-0.527-1.17-1.172v-0.199c0-0.187 0.152-0.328 0.328-0.328l10.299 0.023 0.012 1.699z"
      />
<path
        fill="#f7a58d"
        style="fill: var(--color8, #f7a58d)"
        d="M35.156 28.597h-1.744v-1.699h2.68l-0.293 1.183c-0.070 0.305-0.339 0.515-0.644 0.515z"
      />
<path
        fill="#f6977c"
        style="fill: var(--color11, #f6977c)"
        d="M39.322 22.399c-0.398 0.012-1.17 0.094-1.17 0.375s0.679 0.375 1.229 0.375c0.55 0 0.609-0.305 0.655-0.433 0.035-0.129 0.070-0.328-0.714-0.316z"
      />
<path
        fill="#f47b58"
        style="fill: var(--color13, #f47b58)"
        d="M39.287 22.704c0.187 0 0.386-0.059 0.48-0.152-0.070-0.035-0.176-0.070-0.339-0.070-0.304 0-0.796 0.035-1.053 0.152 0.035 0.023 0.129 0.070 0.281 0.070 0.187 0 0.433 0 0.632 0z"
      />
<path
        fill="#f47b58"
        style="fill: var(--color13, #f47b58)"
        d="M38.503 22.927c-0.070 0-0.105 0.012-0.117 0.023 0.211 0.094 0.597 0.129 0.784 0.129 0.269 0 0.456 0 0.515-0.059-0.047-0.035-0.152-0.094-0.257-0.094-0.14 0.012-0.831 0-0.925 0z"
      />
<path
        fill="#f58a6b"
        style="fill: var(--color12, #f58a6b)"
        d="M33.412 26.359c0 0.34 0 0.539 0 0.539l-10.287-0.023c0 0-0.012-0.199-0.035-0.539l10.322 0.023z"
      />
<path
        fill="#f16036"
        style="fill: var(--color14, #f16036)"
        opacity="0.2"
        d="M28.976 23.993v2.238l-3.452-0.012v-2.238c0-0.27 0.246-0.48 0.55-0.48h2.364c0.293 0.012 0.538 0.234 0.538 0.492z"
      />
<path
        fill="#fff"
        style="fill: var(--color15, #fff)"
        d="M24.365 26.148h-0.726c-0.187 0-0.351-0.152-0.351-0.352v-0.363c0-0.187 0.152-0.351 0.351-0.351h0.726c0.187 0 0.351 0.152 0.351 0.351v0.363c0 0.199-0.164 0.352-0.351 0.352z"
      />
<path
        fill="#fff"
        style="fill: var(--color15, #fff)"
        d="M31.235 26.172h-0.726c-0.187 0-0.351-0.152-0.351-0.352v-0.363c0-0.187 0.152-0.351 0.351-0.351h0.726c0.187 0 0.351 0.152 0.351 0.351v0.363c0 0.188-0.152 0.352-0.351 0.352z"
      />
<path
        fill="#f7a58d"
        style="fill: var(--color8, #f7a58d)"
        d="M35.917 19.951c0 0.047-0.035 0.082-0.070 0.094-0.456 0.047-0.936 0.047-1.428-0.012-0.058-0.012-0.094-0.047-0.094-0.105-0.035-0.937-0.035-1.851 0-2.718 0-0.059 0.047-0.094 0.094-0.105 0.503-0.059 1.007-0.059 1.533 0 0.047 0.012 0.082 0.059 0.082 0.105 0.035 0.879-0.012 1.792-0.117 2.741z"
      />
<path
        fill="#f69276"
        style="fill: var(--color10, #f69276)"
        d="M34.103 20.783c-0.035 0-0.070-0.023-0.082-0.059-0.023-0.047 0-0.105 0.047-0.129l0.796-0.387c0.117-0.059 0.199-0.188 0.199-0.316l0.012-2.941c0-0.012-0.012-0.012-0.012-0.012h-0.492c-0.059 0-0.094-0.047-0.094-0.094 0-0.059 0.047-0.094 0.094-0.094h0.492c0.117 0 0.211 0.094 0.211 0.211l-0.012 2.941c0 0.211-0.117 0.398-0.304 0.492l-0.796 0.387c-0.035 0-0.047 0-0.059 0z"
      />
<path
        fill="#f8b4a0"
        style="fill: var(--color16, #f8b4a0)"
        d="M28.735 28.736l-3.312-0.007 0.002-0.996 3.312 0.007-0.002 0.996z"
      />
<path
        fill="#000"
        style="fill: var(--color3, #000)"
        opacity="0.6"
        d="M34.546 15.148c-0.726 1.664-1.264 3.198-1.779 5.342l-9.573-0.023c0.55-2.015 1.943-4.159 2.516-4.944 0.187-0.258 0.351-0.48 0.492-0.68l8.169 0.023c0.14 0.012 0.234 0.152 0.176 0.281z"
      />
<path
        fill="#000"
        style="fill: var(--color3, #000)"
        d="M19.040 16.291c0 0-0.27 8.409-0.007 17.861 0 0 0.789 0.747 2.283 0.249 0 0-0.014-10.519 0.387-14.698 0 0 1.881 7.944 4.261 14.823 0 0 1.591 0.304 2.158-0.595 0 0-3.21-11.141-3.68-17.549l-5.402-0.091z"
      />
<path
        fill="#402b2b"
        style="fill: var(--color4, #402b2b)"
        opacity="0.45"
        d="M19.060 16.382h5.382c0.041 0.484 0.083 0.997 0.152 1.522-3.209 0.014-4.911-0.803-5.547-1.176 0-0.235 0.014-0.346 0.014-0.346z"
      />
<path
        fill="#6b1912"
        style="fill: var(--color20, #6b1912)"
        d="M19.6 2.445h1.328l0.18-0.803c0 0-0.526 0.304-0.65 0.097s-0.097-0.125-0.221-0.097c-0.125 0.028-0.125-0.138-0.277-0.042-0.166 0.111-0.415 0.637-0.36 0.844z"
      />
<path
        fill="#000"
        style="fill: var(--color3, #000)"
        d="M17.004 12.467l0.757-1.832 2.128 0.798c-0.073 0.587-1.371 1.712-2.128 2.508l-0.757-1.474z"
      />
<path
        fill="#000"
        style="fill: var(--color3, #000)"
        d="M18.777 7.128c0 0-1.165 2.113-1.848 5.22-0.21 0.956-0.159 1.45 0.159 1.673 0.398 0.279 1.115 0.040 1.474-0.717 0.365-0.836 1.040-2.651 1.191-3.523 0 0-0.262-2.497-0.976-2.654z"
      />
<path
        fill="#000"
        style="fill: var(--color3, #000)"
        d="M18.77 7.095c0 0 0.069 1.592 0.277 9.245 0 0 1.881 0.955 5.631 0.291 0 0 0.014-2.297 0.526-4.332 0 0 0.955-3.834 0.47-4.955 0 0-3.057-1.896-6.903-0.249z"
      />
<path
        fill="#000"
        style="fill: var(--color3, #000)"
        d="M21.675 5.578l-0.028 0.991c0 0 0.235 0.346 0.802 0.388 0.567 0.028 0.844-0.291 0.844-0.291l0.055-1.475c-0.706 0.304-1.397 0.429-1.674 0.388z"
      />
<path
        fill="#000"
        style="fill: var(--color3, #000)"
        d="M21.73 5.171l-0.055 1.093c0.277 0.042 0.968-0.083 1.66-0.388l0.041-0.706h-1.646z"
      />
<path
        fill="#ee4d47"
        style="fill: var(--color21, #ee4d47)"
        opacity="0.29"
        d="M25.479 9.503c0 0-0.816 1.841-1.107 2.671-0.291 0.817-0.291 4.069-1.812 4.692 0 0 1.619-0.097 2.13-0.235 0 0 0.028-2.45 0.526-4.332 0 0 0.346-1.979 0.484-2.879l-0.221 0.083z"
      />
<path
        fill="#402b2b"
        style="fill: var(--color4, #402b2b)"
        d="M24.4 2.763c-0.028 0.014-0.055 0.457-0.055 0.457l-0.111 0.927-0.512 0.401-0.291 0.125c0 0-0.429-0.18-0.374-0.346 0.055-0.152 0.332-2.339 0.387-2.339s0.498 0.318 0.498 0.318l0.456 0.457z"
      />
<path
        fill="#402b2b"
        style="fill: var(--color4, #402b2b)"
        d="M20.347 1.933c-0.125 0 0.069 1.522 0.069 1.522l0.221-0.609 0.152-0.734-0.443-0.18z"
      />
<path
        fill="#000"
        style="fill: var(--color3, #000)"
        d="M20.554 2.237l-0.235 1.951c0 0-0.083 1.647 1.273 1.744 1.356 0.083 2.283-1.259 2.283-1.259s0.166 0.194 0.346-0.138c0.166-0.332 0.055-0.775-0.18-0.817-0.249-0.028-0.36 0.111-0.387 0.318s-0.055 0.36-0.055 0.36l-0.208-0.028 0.152-1.605c0 0-0.318-0.623-0.678-0.747s-0.678 0.374-0.678 0.374c0 0-0.332 0.069-0.65 0s-0.526-0.152-0.526-0.152c0 0-0.194 0.055-0.457 0z"
      />
<path
        fill="#ee4d47"
        style="fill: var(--color21, #ee4d47)"
        opacity="0.29"
        d="M21.589 13.543c0 0-2.111-0.319-2.111-0.637s0.438-1.075 0.757-1.952c0.319-0.876 0.598-2.27 0.717-2.549s-0.358 0.518-0.358 0.518c-0.783 1.022-2.382 3.139-2.509 3.426s-0.186 0.969-0.199 1.275l0.558 0.319 1.633-0.199 1.514-0.199z"
      />
<path
        fill="#000"
        style="fill: var(--color3, #000)"
        d="M20.51 7.409c0 0-3.465 4.462-3.545 5.178s-0.138 1.422 0.587 1.509c0.724 0.087 1.412-1.053 1.666-1.634l0.576-1.468 1.195-2.908-0.478-0.677z"
      />
<path
        fill="#000"
        style="fill: var(--color3, #000)"
        d="M20.991 8.365c0-0.398-0.478-0.558-0.876-0.558l-2.47 3.426c-0.505 0.704-1.37 2.326-0.478 2.868s1.885-0.837 2.231-1.553c0.191-0.446 1.142-2.974 1.593-4.182z"
      />
<path
        fill="#000"
        style="fill: var(--color3, #000)"
        d="M20.513 7.488c0 0-0.243-0.946 0.015-1.562 0 0 0.141-0.275 0.293-0.157 0.169 0.109 0.303-0.14 0.472-0.031s0.305-0.052 0.473 0.158c0 0 0.191-0.058 0.301 0.105s0.361 0.528 0.306 0.613c-0.055 0.085-0.24 0.506-0.288 0.52s-0.135 0.017-0.175-0.14c0 0-0.004 0.158-0.087 0.335-0.069 0.181-0.295 0.402-0.295 0.402l-0.578 0.393-0.438-0.637z"
      />
<path
        fill="#402b2b"
        style="fill: var(--color4, #402b2b)"
        d="M21.979 1.739v-1.412c0.844 0.042 1.715 0.208 2.144 0.734 0.512 0.623 0.221 2.062 0.221 2.062s-0.623-0.069-0.733-0.277c-0.111-0.208-1.162-0.498-1.964-0.457s-1.19-0.042-1.591-0.388c-0.083-0.069-0.152-0.166-0.207-0.277h2.13v0.014z"
      />
<path
        fill="#000"
        style="fill: var(--color3, #000)"
        d="M24.442 2.597c0 0-0.595-0.194-1.591-0.277-1.674-0.706-2.393-0.581-2.393-0.581s0.014-0.54 0.166-0.913c0.152-0.374 1.176-0.9 2.034-0.817s1.743 0.72 1.881 1.329c0.111 0.471-0.097 1.259-0.097 1.259z"
      />
<path
        fill="#000"
        style="fill: var(--color3, #000)"
        d="M23.432 2.389c-0.18-0.858-1.466-1.287-2.38-1.273-0.899 0.014-1.536 0.761-1.632 1.273-0.041 0.208 0.124 0.235 0.18 0.055 0.041-0.125 0.124-0.72 0.955-0.651s0.789 0.817 1.204 0.886c0.387 0.069 0.83-0.208 1.674-0.291z"
      />
<path
        fill="#402b2b"
        style="fill: var(--color4, #402b2b)"
        d="M20.597 2.898l-0.043-0.087c0.037-0.018 0.304-0.197 0.688-0.295l0.055 0.143c-0.328 0.055-0.7 0.24-0.7 0.24z"
      />
<path
        fill="#402b2b"
        style="fill: var(--color4, #402b2b)"
        d="M22.952 3.262c-0.166-0.232-0.561-0.496-0.555-0.508l0.109-0.101c0.012 0.006 0.365 0.265 0.538 0.546l-0.091 0.064z"
      />
<path
        fill="#d87c60"
        style="fill: var(--color24, #d87c60)"
        d="M21.606 3.4c0 0-0.041 0.291-0.152 0.374s-0.304 0.152-0.332 0.221c-0.028 0.055 0.028 0.166 0.152 0.208s0.138 0.083 0.138 0.083c0 0-0.249 0.028-0.374-0.125s0.014-0.277 0.138-0.346c0.125-0.069 0.18-0.097 0.235-0.138 0.069-0.042 0.194-0.277 0.194-0.277z"
      />
<path
        fill="#402b2b"
        style="fill: var(--color4, #402b2b)"
        d="M22.201 3.552c0 0.138 0.097 0.263 0.221 0.263s0.221-0.111 0.221-0.263c0-0.138-0.097-0.263-0.221-0.263s-0.221 0.111-0.221 0.263z"
      />
<path
        fill="#402b2b"
        style="fill: var(--color4, #402b2b)"
        d="M20.679 3.372c0 0.138 0.097 0.263 0.221 0.263s0.221-0.111 0.221-0.263c0-0.138-0.097-0.263-0.221-0.263-0.124 0.014-0.221 0.125-0.221 0.263z"
      />
<path
        fill="#644545"
        style="fill: var(--color35, #644545)"
        d="M19.928 14.18c-0.106-0.173-0.303-0.653-0.239-1.195 0.133 0.186 0.366 0.685 0.239 1.195z"
      />
<path
        fill="#000"
        style="fill: var(--color3, #000)"
        d="M24.746 13.531c1.010-1.467 1.148-5.91 1.148-5.91-0.929 0.121-1.373 1.041-1.658 1.632-0.139 0.289-0.241 0.499-0.342 0.499l-0.428 2.721-4.28 0.764c-0.004 0.005-0.007 0.010-0.011 0.015-0.211 0.006-0.942 0.047-1.42 0.351 0 0-0.248 0.185-0.105 0.316 0.068 0.074 0.046 0.155 0.025 0.235s-0.043 0.161 0.025 0.235c0.057 0.063 0.066 0.128 0.075 0.191 0.012 0.087 0.024 0.173 0.16 0.248 0 0-0.025 0.198 0.155 0.279 0.008 0.004 0.017 0.008 0.026 0.012 0.189 0.085 0.559 0.252 0.63 0.187 0.027-0.024 0.093-0.073 0.168-0.127 0.133-0.097 0.293-0.212 0.296-0.244 0.006-0.050-0.006-0.136-0.167-0.149 0 0 0.155-0.031 0.316-0.142 0.167-0.099 0.347-0.359 0.347-0.359l0.163-0.372c3.965 0.338 4.879-0.382 4.879-0.382z"
      />
<path
        fill="#000"
        style="fill: var(--color3, #000)"
        d="M23.584 9.655l-0.387 2.034-0.174 0.512-3.346 0.783c0.093 0.173 0.271 0.653 0.239 1.195 0.744 0.080 2.812 0.088 4.182-0.199 0.368-0.071 0.797-0.438 1.339-1.779 1.231-4.235 0.235-4.858 0.235-4.858-1.383 0.18-2.089 2.311-2.089 2.311z"
      />
<path
        fill="#000"
        style="fill: var(--color3, #000)"
        d="M14.778 11.472c0 0 1.587 1.633 0.279 1.992s-2.546-0.696-4.219-0.41c-2.868 0.49-7.577 1.127-10.126-3.652-3.187-5.975 5.129-8.365 9.321-8.365 5.028 0 7.010 2.151 7.488 5.098 0.382 2.358-1.707 4.62-2.742 5.337z"
      />
<path
        fill="#fff"
        style="fill: var(--color15, #fff)"
        d="M8.733 8.176l0.077-1.644c0.307-0.080 0.564-0.226 0.769-0.439s0.325-0.483 0.357-0.81c0.038-0.385-0.001-0.693-0.119-0.925-0.117-0.238-0.279-0.368-0.487-0.388-0.183-0.018-0.331 0.032-0.445 0.15-0.107 0.119-0.2 0.285-0.278 0.497l-0.169 0.45c-0.078 0.212-0.192 0.36-0.34 0.442-0.141 0.077-0.287 0.098-0.436 0.064-0.143-0.034-0.263-0.113-0.358-0.239-0.095-0.132-0.133-0.301-0.112-0.506 0.025-0.256 0.139-0.469 0.34-0.637 0.208-0.167 0.462-0.288 0.762-0.362s0.608-0.095 0.923-0.064c0.637 0.063 1.121 0.25 1.454 0.562 0.338 0.312 0.48 0.744 0.426 1.295-0.037 0.378-0.161 0.69-0.37 0.935s-0.467 0.436-0.773 0.574c-0.3 0.132-0.608 0.228-0.926 0.287l-0.124 0.775-0.17-0.017zM8.514 10.485c-0.227-0.023-0.415-0.122-0.563-0.299-0.142-0.176-0.201-0.379-0.178-0.61 0.022-0.224 0.12-0.409 0.294-0.554 0.181-0.151 0.384-0.215 0.611-0.192 0.233 0.023 0.417 0.126 0.552 0.307 0.142 0.176 0.202 0.376 0.179 0.601-0.023 0.231-0.121 0.419-0.295 0.563-0.167 0.145-0.367 0.206-0.601 0.183z"
      />
</symbol>
<symbol id="icon-logo" viewBox="0 0 136 32">
<path
        fill="#fff"
        style="fill: var(--color15, #fff)"
        d="M51.195 26.24v-0.205l0.84-0.205c0.56-0.123 0.84-0.464 0.84-1.024v-11.674h-1.741c-0.505 0-0.867 0.136-1.085 0.41-0.218 0.259-0.451 0.621-0.696 1.085l-0.737 1.434h-0.205l0.102-3.338h11.817l0.082 3.338h-0.205l-0.737-1.434c-0.232-0.464-0.457-0.826-0.676-1.085-0.218-0.273-0.58-0.41-1.085-0.41h-1.741v11.674c0 0.56 0.28 0.901 0.84 1.024l0.84 0.205v0.205h-6.451zM61.291 26.24v-0.205l0.43-0.143c0.273-0.096 0.451-0.218 0.532-0.369 0.082-0.164 0.123-0.389 0.123-0.676v-10.711c0-0.273-0.041-0.485-0.123-0.635-0.068-0.164-0.232-0.294-0.492-0.389l-0.471-0.184v-0.205h5.858c1.611 0 2.847 0.307 3.707 0.922 0.86 0.601 1.29 1.44 1.29 2.519 0 0.601-0.225 1.201-0.676 1.802s-1.161 1.065-2.13 1.393l2.847 5.652c0.123 0.232 0.259 0.423 0.41 0.573 0.164 0.137 0.375 0.259 0.635 0.369l0.266 0.102v0.184h-3.666l-3.031-6.451h-1.393v5.059c0 0.259 0.041 0.471 0.123 0.635s0.252 0.287 0.512 0.369l0.492 0.184v0.205h-5.243zM65.407 19.379h0.983c0.983 0 1.693-0.259 2.13-0.778 0.436-0.532 0.655-1.318 0.655-2.355 0-1.051-0.205-1.83-0.614-2.335-0.41-0.519-1.1-0.778-2.068-0.778h-1.085v6.246zM74.064 26.24v-0.205l0.512-0.184c0.273-0.109 0.484-0.239 0.635-0.389 0.15-0.164 0.273-0.389 0.369-0.676l4.219-12.104h1.741l4.157 12.186c0.109 0.3 0.232 0.532 0.369 0.696 0.136 0.15 0.348 0.28 0.635 0.389l0.246 0.082v0.205h-5.202v-0.205l0.307-0.102c0.287-0.109 0.457-0.259 0.512-0.451 0.068-0.205 0.061-0.444-0.020-0.717l-0.963-2.949h-4.547l-0.983 2.888c-0.096 0.3-0.13 0.539-0.102 0.717 0.041 0.177 0.205 0.321 0.492 0.43l0.451 0.184v0.205h-2.826zM77.177 21.407h4.28l-2.068-6.369-2.212 6.369zM87.59 26.24v-0.205l0.369-0.123c0.273-0.096 0.458-0.225 0.553-0.389s0.143-0.382 0.143-0.655c0.014-0.819 0.020-1.645 0.020-2.478s0-1.666 0-2.499v-0.819c0-0.819 0-1.638 0-2.458 0-0.833-0.006-1.659-0.020-2.478 0-0.273-0.041-0.492-0.123-0.655-0.068-0.164-0.232-0.294-0.492-0.389l-0.451-0.164v-0.205h9.912l0.143 3.4h-0.205l-1.167-2.15c-0.136-0.259-0.293-0.464-0.471-0.614s-0.423-0.225-0.737-0.225h-3.297c-0.013 0.969-0.020 1.959-0.020 2.97s0 2.014 0 3.011h2.13c0.314 0 0.547-0.068 0.696-0.205s0.294-0.335 0.43-0.594l0.43-0.778h0.205v3.584h-0.205l-0.451-0.778c-0.136-0.246-0.28-0.444-0.43-0.594-0.136-0.15-0.362-0.225-0.676-0.225h-2.13c0 0.956 0 1.87 0 2.744 0 0.86 0.007 1.707 0.020 2.54 0 0.532 0.26 0.881 0.778 1.044l0.614 0.184v0.205h-5.571zM98.47 26.24v-0.205l0.41-0.164c0.273-0.096 0.451-0.225 0.532-0.389 0.096-0.164 0.143-0.382 0.143-0.655v-10.691c0-0.273-0.041-0.492-0.123-0.655s-0.266-0.294-0.553-0.389l-0.41-0.164v-0.205h5.263v0.205l-0.41 0.164c-0.273 0.096-0.457 0.225-0.553 0.389-0.082 0.164-0.123 0.382-0.123 0.655v10.691c0 0.273 0.041 0.492 0.123 0.655 0.096 0.15 0.28 0.28 0.553 0.389l0.41 0.164v0.205h-5.263zM111.336 26.609c-1.324 0-2.526-0.266-3.604-0.799-1.065-0.546-1.912-1.352-2.54-2.417s-0.942-2.369-0.942-3.912c0-1.174 0.191-2.205 0.573-3.092s0.901-1.632 1.556-2.232c0.669-0.601 1.434-1.051 2.294-1.352 0.874-0.3 1.795-0.451 2.765-0.451 0.778 0 1.495 0.089 2.15 0.266s1.27 0.423 1.843 0.737l0.082 2.519h-0.205l-1.024-1.638c-0.136-0.259-0.287-0.492-0.451-0.696-0.164-0.219-0.369-0.382-0.614-0.492-0.205-0.096-0.41-0.164-0.614-0.205-0.191-0.055-0.437-0.082-0.737-0.082-0.792 0-1.516 0.212-2.171 0.635-0.642 0.423-1.16 1.126-1.556 2.109-0.382 0.969-0.573 2.301-0.573 3.994 0 1.679 0.184 3.011 0.553 3.994 0.369 0.969 0.867 1.666 1.495 2.089 0.642 0.41 1.359 0.614 2.15 0.614 0.437 0 0.785-0.027 1.044-0.082 0.259-0.068 0.519-0.164 0.778-0.287 0.259-0.109 0.458-0.266 0.594-0.471 0.136-0.218 0.259-0.451 0.369-0.696l0.901-2.007h0.205l-0.061 2.929c-0.573 0.3-1.215 0.546-1.925 0.737s-1.488 0.287-2.335 0.287zM122.921 26.609c-0.833 0-1.638-0.15-2.417-0.451-0.765-0.3-1.454-0.744-2.068-1.331-0.601-0.601-1.079-1.345-1.434-2.232s-0.532-1.925-0.532-3.113c0-1.174 0.177-2.205 0.532-3.092s0.84-1.625 1.454-2.212c0.614-0.601 1.304-1.051 2.068-1.352 0.778-0.314 1.577-0.471 2.396-0.471 0.833 0 1.631 0.15 2.396 0.451 0.778 0.287 1.468 0.73 2.068 1.331 0.614 0.587 1.099 1.331 1.454 2.232 0.355 0.887 0.532 1.925 0.532 3.113 0 1.16-0.178 2.191-0.532 3.092-0.355 0.887-0.84 1.632-1.454 2.232-0.601 0.587-1.29 1.038-2.068 1.352-0.765 0.3-1.564 0.451-2.396 0.451zM122.921 26.179c0.751 0 1.358-0.198 1.823-0.594 0.464-0.41 0.799-1.099 1.004-2.068 0.218-0.983 0.328-2.328 0.328-4.035 0-1.72-0.109-3.065-0.328-4.035-0.205-0.983-0.54-1.673-1.004-2.068-0.465-0.41-1.072-0.614-1.823-0.614-0.737 0-1.338 0.205-1.802 0.614-0.465 0.396-0.806 1.085-1.024 2.068-0.205 0.969-0.307 2.314-0.307 4.035 0 1.707 0.102 3.052 0.307 4.035 0.218 0.969 0.559 1.659 1.024 2.068 0.464 0.396 1.065 0.594 1.802 0.594zM132.152 26.547c-0.492 0-0.908-0.171-1.249-0.512s-0.512-0.751-0.512-1.229c0-0.478 0.17-0.894 0.512-1.249s0.758-0.532 1.249-0.532 0.908 0.177 1.249 0.532c0.341 0.355 0.512 0.771 0.512 1.249s-0.171 0.887-0.512 1.229c-0.342 0.341-0.758 0.512-1.249 0.512z"
      />
<path
        fill="#fff"
        style="fill: var(--color15, #fff)"
        opacity="0.4"
        d="M0 10.88h10.24v-10.88l-10.24 10.88z"
      />
<path
        fill="#fff"
        style="fill: var(--color15, #fff)"
        d="M30.080 10.88h-19.84v21.12l19.84-21.12z"
      />
</symbol>
<symbol id="icon-union" viewBox="0 0 30 13">
<path
        d="M23.8885 12.355L29.5 6.17749L28.5 5.07664V5.0039H28.4339L23.8885 0L22.4086 1.3464L25.731 5.0039L0 5.0039L0 7.0039L26.0464 7.0039L22.4086 11.0086L23.8885 12.355Z"
      />
</symbol>
</defs>
</svg>
