<svg aria-hidden="true" style="position:absolute;width:0;height:0" xmlns="http://www.w3.org/2000/svg" overflow="hidden"><defs><symbol id="icon-Illustration1" viewBox="0 0 38 32"><path fill="var(--color1, #fcddd4)" d="M22.265 29.219c3.98 2.202 12.787-1.221 12.787-9.671 0-13.676-12.464-16.01-19.771-16.01-13.103 0-17.915 14.805-2.364 16.01 13.861 1.074.851 4.97 9.348 9.671z"/><path fill="var(--color2, #d88d6c)" d="M24.437 31.97l-1.434-.122.073-1.776 1.447.134-.085 1.764z"/><path fill="var(--color3, #000)" d="M21.763 31.727s.948-.438 1.106-.754c0 0 .28-1.022.705-.486 0 0 .438.353 1.058.073l.073 1.934-4.291-.012c.109-.292.207-.62 1.349-.754z"/><path fill="var(--color2, #d88d6c)" d="M30.722 31.727l-1.435.243-.377-1.727L30.332 30l.389 1.727z"/><path fill="var(--color3, #000)" d="M27.963 31.727s.948-.438 1.106-.754c0 0-.219-.803.292-.401 0 0 .875.328 1.24-.073l.292 2.007-4.291-.012c.134-.304.231-.632 1.362-.766z"/><path fill="var(--color3, #000)" d="M22.76 15.235s-.255 7.309-.024 15.616c0 0 .693.657 2.006.219 0 0-.012-9.243.34-12.916 0 0 1.653 6.981 3.744 13.026 0 0 1.398.268 1.896-.523 0 0-2.82-9.79-3.234-15.421h-4.729z"/><path fill="var(--color4, #402b2b)" opacity=".45" d="M22.76 15.235h4.729c.036.426.073.876.134 1.338-2.82.012-4.316-.705-4.875-1.034 0-.207.012-.304.012-.304z"/><path fill="var(--color4, #402b2b)" d="M-2.37 18.339c0 1.364.785 2.465 1.751 2.465h1.751c.966 0 1.742-1.111 1.742-2.465 0-1.364-.785-2.465-1.751-2.465H-.619c-.975 0-1.751 1.111-1.751 2.465z"/><path fill="var(--color5, #f48767)" d="M11.35 18.312c0 1.364.785 2.465 1.751 2.465h1.751c.966 0 1.742-1.111 1.742-2.465 0-1.364-.785-2.465-1.751-2.465h-1.742c-.975 0-1.751 1.102-1.751 2.465z"/><path fill="var(--color4, #402b2b)" d="M-2.487 18.105l7.049-.018-.812-.479-5.334.009-.903.488z"/><path fill="var(--color6, #f36f49)" d="M-9.139 14.086l.009 4.524 5.723-.009 1.823-.984 5.334-.009 1.643.975 11.644-.027c.19 0 .343-.153.343-.343l-.009-4.181-26.51.054z"/><path fill="var(--color5, #f48767)" d="M3.335 15.116l9.134-.018-.018-8.281a.607.607 0 00-.614-.605l-8.53.018.027 8.886z"/><path fill="var(--color7, #f06a5b)" d="M-10.909 15.152l14.234-.027-.018-8.886-13.629.027a.607.607 0 00-.605.614l.018 8.272z"/><path fill="var(--color5, #f48767)" d="M10.194 18.312c0 1.364-.776 2.465-1.742 2.465H6.71v-.831c-.641 0-1.164-.731-1.164-1.634s.514-1.634 1.155-1.634v-.831h1.742c.966.009 1.742 1.111 1.751 2.465z"/><path fill="var(--color5, #f48767)" d="M5.266 18.33c0 1.12.641 2.023 1.435 2.014.794 0 1.426-.903 1.426-2.023s-.641-2.023-1.435-2.014c-.785 0-1.426.903-1.426 2.023z"/><path fill="var(--color8, #f7a58d)" d="M6.701 19.658c.524 0 .939-.596.939-1.336s-.424-1.327-.948-1.327-.939.596-.939 1.336.424 1.327.948 1.327zm0-2.122c.307 0 .56.352.56.786s-.253.795-.56.795c-.307 0-.56-.352-.56-.786 0-.442.244-.795.56-.795z"/><path fill="var(--color8, #f7a58d)" d="M6.701 20.787c.966 0 1.742-1.111 1.742-2.465s-.785-2.465-1.751-2.465c-.966 0-1.742 1.111-1.742 2.465s.794 2.474 1.751 2.465zm-.009-4.479c.794 0 1.435.903 1.435 2.014 0 1.12-.632 2.023-1.426 2.023s-1.435-.903-1.435-2.014c0-1.12.641-2.023 1.426-2.023z"/><path fill="var(--color9, #5b2929)" d="M6.458 18.321c0-.19.108-.334.235-.334s.235.154.244.334c0 .19-.108.334-.235.334-.135.009-.244-.145-.244-.334z"/><path fill="var(--color10, #f69276)" d="M18.517 11.567c0 .036.027.063.054.072.072.018.343.018.424-.009.036-.009.072-.036.072-.081.027-.722.027-1.427 0-2.095 0-.045-.036-.072-.072-.081-.09-.027-.406-.045-.505-.009a.086.086 0 00-.063.081c-.018.686.009 1.391.09 2.122z"/><path fill="var(--color10, #f69276)" d="M18.074 12.208c.009 0 .018 0 .036-.009l.614-.307a.422.422 0 00.235-.379l-.009-2.267a.162.162 0 00-.162-.163H17.1a.071.071 0 00-.072.072c0 .045.036.072.072.072h1.688c.009 0 .009.009.009.009l.009 2.267a.273.273 0 01-.153.244l-.614.307c-.036.018-.054.063-.036.099.018.045.045.054.072.054z"/><path fill="var(--color6, #f36f49)" d="M4.562 15.098h2.031c1.074 0 1.327.533 1.986 1.842l2.085-.009v-.415l7.961-.018c.036-.659.108-1.996.108-3.26v-.126c0-.361-.063-.758-.171-1.156-.424-1.553-1.498-3.206-1.941-3.811-.144-.199-.271-.37-.379-.524-.307-.406-.514-.614-.903-.614l-9.649.027a.454.454 0 00-.433.325c-.83 3.052-.704 5.373-.695 7.739zm8.133-6.99c-.009-.045.027-.081.072-.081l2.934-.009a.56.56 0 01.451.244c1.146 1.562 1.607 2.989 1.778 3.811l.181.867c.027.126-.054.226-.181.226h-.713a.49.49 0 01-.334-.144l-1.462-1.4a.872.872 0 00-.587-.244h-1.751l-.388-3.269z"/><path fill="var(--color11, #f6977c)" d="M11.178 11.982c.063.289.135.587.199.903a.48.48 0 00.451.379c2.852.099 5.217.108 6.905-.018v-.126c0-.361-.063-.759-.171-1.156l-7.383.018z"/><path fill="var(--color6, #f36f49)" d="M5.907 8.036l2.933-.009c.172 0 .325.09.406.244.821 1.562.993 2.989.993 3.811v.867a.224.224 0 01-.226.226H9.3a.4.4 0 01-.307-.144l-1.173-1.4a.675.675 0 00-.533-.244H5.536l.28-3.269c0-.045.036-.081.09-.081z"/><path fill="var(--color8, #f7a58d)" d="M4.562 15.098h2.031c1.074 0 1.327.533 1.986 1.842l2.085-.009v-.415l7.961-.018c.036-.659.108-1.996.108-3.26-1.688.126-4.062.126-6.905.018a.48.48 0 01-.451-.379c-.063-.316-.135-.623-.199-.903a22.412 22.412 0 00-1.372-4.118c-.045-.099.027-.217.135-.217l6.3-.018c-.307-.406-.514-.614-.903-.614l-9.649.027a.454.454 0 00-.433.325c-.83 3.052-.704 5.373-.695 7.739zm.966-3.712l.28-3.269c0-.045.045-.081.09-.081l2.933-.009c.172 0 .325.09.406.244.821 1.562.993 2.989.993 3.811v.867a.224.224 0 01-.226.226h-.713a.398.398 0 01-.307-.145l-1.173-1.4a.678.678 0 00-.533-.244H5.527z"/><path fill="var(--color12, #f58a6b)" d="M4.914 14.863c0 .135.108.235.244.235h1.435c1.074 0 1.327.533 1.986 1.842l2.085-.009v-.415l-.009-3.657c0-1.815-.325-2.962-1.182-4.777a.778.778 0 00-.704-.442l-3.105.009a.146.146 0 00-.144.108c-.614 2.33-.614 6.122-.605 7.107zm.614-3.477l.28-3.269c0-.045.045-.081.09-.081l2.933-.009c.172 0 .325.09.406.244.821 1.562.993 2.989.993 3.811v.867a.224.224 0 01-.226.226h-.713a.4.4 0 01-.307-.144l-1.173-1.4a.675.675 0 00-.533-.244H5.527z"/><path fill="var(--color8, #f7a58d)" d="M5.925 8.144l2.915-.009a.36.36 0 01.307.181c.848 1.616.984 3.052.984 3.757v.867a.12.12 0 01-.117.117h-.713a.296.296 0 01-.226-.099l-1.173-1.4a.814.814 0 00-.623-.289H5.654l.271-3.124zm-.018-.108c-.045 0-.09.036-.09.081l-.28 3.269h1.751c.208 0 .397.09.533.244l1.173 1.4a.4.4 0 00.307.144h.713a.224.224 0 00.226-.226v-.867c0-.822-.171-2.248-.993-3.811a.453.453 0 00-.406-.244l-2.933.009z"/><path fill="var(--color11, #f6977c)" d="M10.655 14.791v1.725l3.15-.009a5.421 5.421 0 00-.253-1.291.45.45 0 00-.361-.307c-.695-.081-1.58-.117-2.536-.117zm6.372 1.715h1.562c.027-.379.054-.993.081-1.689-.379.018-.731.054-1.047.099a.45.45 0 00-.361.307 5.779 5.779 0 00-.235 1.282zM10.664 18.249l7.302-.018a.906.906 0 00.903-.903v-.153a.253.253 0 00-.253-.253l-7.943.018-.009 1.309z"/><path fill="var(--color8, #f7a58d)" d="M9.319 18.249h1.345V16.94H8.597l.226.912a.51.51 0 00.496.397z"/><path fill="var(--color11, #f6977c)" d="M6.106 13.472c.307.009.903.072.903.289s-.524.289-.948.289-.469-.235-.505-.334c-.027-.099-.054-.253.551-.244z"/><path fill="var(--color13, #f47b58)" d="M6.133 13.707c-.144 0-.298-.045-.37-.117a.568.568 0 01.262-.054c.235 0 .614.027.812.117a.398.398 0 01-.217.054h-.487zM6.738 13.879c.054 0 .081.009.09.018-.162.072-.46.099-.605.099-.208 0-.352 0-.397-.045a.366.366 0 01.199-.072c.108.009.641 0 .713 0z"/><path fill="var(--color12, #f58a6b)" d="M10.664 16.524v.415l7.934-.018s.009-.154.027-.415l-7.961.018z"/><path fill="var(--color14, #f16036)" opacity=".2" d="M14.085 14.7v1.725l2.663-.009v-1.725c0-.208-.19-.37-.424-.37h-1.823c-.226.009-.415.181-.415.379z"/><path fill="var(--color15, #fff)" d="M17.641 16.362h.56a.272.272 0 00.271-.271v-.28a.271.271 0 00-.271-.271h-.56a.272.272 0 00-.271.271v.28c0 .154.126.271.271.271zM12.343 16.38h.56a.272.272 0 00.271-.271v-.28a.272.272 0 00-.271-.271h-.56a.272.272 0 00-.271.271v.28c0 .144.117.271.271.271z"/><path fill="var(--color8, #f7a58d)" d="M8.732 11.585c0 .036.027.063.054.072.352.036.722.036 1.101-.009.045-.009.072-.036.072-.081.027-.722.027-1.427 0-2.095 0-.045-.036-.072-.072-.081a5.19 5.19 0 00-1.182 0 .086.086 0 00-.063.081c-.027.677.009 1.382.09 2.113z"/><path fill="var(--color10, #f69276)" d="M10.131 12.226a.068.068 0 00.063-.045c.018-.036 0-.081-.036-.099l-.614-.298a.282.282 0 01-.153-.244l-.009-2.267c0-.009.009-.009.009-.009h.379a.071.071 0 00.072-.072.071.071 0 00-.072-.072h-.379a.162.162 0 00-.162.163l.009 2.267c0 .163.09.307.235.379l.614.298h.045z"/><path fill="var(--color16, #f8b4a0)" d="M14.271 18.356l2.554-.006-.002-.768-2.554.006.002.768z"/><path fill="var(--color3, #000)" opacity=".6" d="M9.789 7.883c.56 1.282.975 2.465 1.372 4.118l7.383-.018c-.424-1.553-1.498-3.206-1.941-3.811-.144-.199-.271-.37-.379-.524l-6.3.018c-.108.009-.181.117-.135.217z"/><path fill="var(--color17, #8c5e5e)" d="M37.794 25.429h-7.229v5.582h7.229v-5.582z"/><path fill="var(--color18, #694646)" d="M37.806 25.429h-2.632v5.582h2.632v-5.582z"/><path fill="var(--color19, #a3774a)" d="M36.905 25.429h-.678v.772h.678v-.772zM33.022 25.429h-.678v.772h.678v-.772z"/><path fill="var(--color8, #f7a58d)" d="M33.054 25.429h-7.229v5.582h7.229v-5.582z"/><path fill="var(--color12, #f58a6b)" d="M33.065 25.429h-2.632v5.582h2.632v-5.582z"/><path fill="var(--color15, #fff)" d="M32.165 25.429h-.678v.772h.678v-.772zM28.281 25.429h-.678v.772h.678v-.772z"/><path fill="var(--color8, #f7a58d)" d="M34.897 20.01h-7.229v5.582h7.229V20.01z"/><path fill="var(--color12, #f58a6b)" d="M34.909 20.01h-2.632v5.582h2.632V20.01z"/><path fill="var(--color15, #fff)" d="M34.008 20.01h-.678v.772h.678v-.772zM30.125 20.01h-.678v.772h.678v-.772z"/><path fill="var(--color20, #6b1912)" d="M23.234 2.988h1.167l.158-.705s-.462.268-.571.085-.085-.109-.194-.085-.109-.122-.243-.037c-.146.097-.365.559-.316.742z"/><path fill="var(--color3, #000)" d="M20.667 12.149l1.155-1.746 1.665.484c-.064.516-1.137 2.059-1.665 2.767l-1.155-1.504z"/><path fill="var(--color3, #000)" d="M20.829 11.517c.567-2.58 1.682-4.347 1.682-4.347.628.138.858 2.332.858 2.332-.133.766-.537 2.758-.858 3.493l-1.682-1.477z"/><path fill="var(--color3, #000)" d="M22.504 7.141s.061 1.399.243 8.124c0 0 1.653.839 4.948.255 0 0 .012-2.019.462-3.807 0 0 .839-3.369.413-4.354 0 0-2.687-1.666-6.066-.219z"/><path fill="var(--color3, #000)" d="M25.057 5.808l-.024.871s.207.304.705.341c.498.024.742-.255.742-.255l.049-1.296c-.62.268-1.228.377-1.471.341z"/><path fill="var(--color3, #000)" d="M25.106 5.45l-.049.961c.243.037.851-.073 1.459-.341l.036-.62h-1.447z"/><path fill="var(--color21, #ee4d47)" opacity=".29" d="M28.4 9.257s-.717 1.618-.973 2.347c-.255.718-.255 3.576-1.593 4.123 0 0 1.422-.085 1.872-.207 0 0 .024-2.153.462-3.807 0 0 .304-1.739.425-2.53l-.195.073z"/><path fill="var(--color4, #402b2b)" d="M27.452 3.334c-.024.012-.049.401-.049.401l-.097.815-.45.353-.255.109s-.377-.158-.328-.304c.049-.134.292-2.055.34-2.055s.438.28.438.28l.401.401zM23.89 2.604c-.109 0 .061 1.338.061 1.338l.195-.535.134-.645-.389-.158z"/><path fill="var(--color3, #000)" d="M24.073 2.872l-.207 1.715s-.073 1.447 1.118 1.532c1.191.073 2.006-1.107 2.006-1.107s.146.17.304-.122c.146-.292.049-.681-.158-.718-.219-.024-.316.097-.34.28s-.049.316-.049.316l-.182-.024.134-1.411s-.28-.547-.596-.657-.596.328-.596.328-.292.061-.571 0-.462-.134-.462-.134-.17.049-.401 0z"/><path fill="var(--color22, #893d43)" d="M24.936 5.463c.401.024.462-.438.462-.438s-.924-.109-.948-.122c0 0-.073.523.486.559z"/><path fill="var(--color23, #fffeff)" d="M25.361 5.171c.036-.085.049-.146.049-.146s-.924-.109-.948-.122c0 0-.012.061 0 .158l.9.109z"/><path fill="var(--color4, #402b2b)" d="M25.325 2.434V1.193c.742.036 1.507.182 1.884.645.45.547.194 1.812.194 1.812s-.547-.061-.644-.243c-.097-.182-1.021-.438-1.726-.401s-1.045-.037-1.398-.341a.746.746 0 01-.182-.243h1.872v.012z"/><path fill="var(--color3, #000)" d="M27.489 3.188s-.523-.17-1.398-.243c-1.471-.62-2.103-.511-2.103-.511s.012-.474.146-.803c.134-.328 1.033-.791 1.787-.718s1.532.632 1.653 1.168c.097.413-.085 1.107-.085 1.107z"/><path fill="var(--color3, #000)" d="M26.601 3.006c-.158-.754-1.289-1.131-2.091-1.119-.79.012-1.349.669-1.434 1.119-.036.182.109.207.158.049.036-.109.109-.632.839-.572s.693.718 1.058.778c.34.061.729-.182 1.471-.255z"/><path fill="var(--color4, #402b2b)" d="M24.158 3.176v-.085c.036 0 .316-.037.656.037l-.012.134c-.28-.085-.644-.085-.644-.085zM26.212 3.48c-.219-.122-.632-.182-.632-.195l.049-.122c.012 0 .389.073.632.231l-.049.085z"/><path fill="var(--color24, #d87c60)" d="M24.996 3.894s-.036.255-.134.328-.267.134-.292.195c-.024.049.024.146.134.182s.122.073.122.073-.219.024-.328-.109.012-.243.122-.304c.109-.061.158-.085.207-.122.061-.037.17-.243.17-.243z"/><path fill="var(--color4, #402b2b)" d="M25.519 4.027c0 .122.085.231.194.231s.195-.097.195-.231c0-.122-.085-.231-.195-.231s-.194.097-.194.231zM24.182 3.869c0 .122.085.231.195.231s.194-.097.194-.231c0-.122-.085-.231-.194-.231a.226.226 0 00-.195.231z"/><path fill="var(--color15, #fff)" d="M18.288 9.212c-.051-.094-.015-.212.079-.262s.212-.015.263.079l.641 1.196-.342.183-.641-1.196z"/><path fill="var(--color25, #822626)" d="M18.411 9.437l.339-.182.733 1.367-.339.182-.733-1.367z"/><path fill="var(--color3, #000)" d="M23.381 12.914c-.15-.301-.116-.537-.081-.618.152.09.467.317.51.51s-.054.439-.107.537c-.045-.018-.172-.129-.322-.43z"/><path fill="var(--color15, #fff)" d="M16.927 10.815a.333.333 0 01.32-.428h4.087c.148 0 .278.097.32.239l1.522 5.165a.333.333 0 01-.32.428h-4.087a.333.333 0 01-.32-.239l-1.522-5.165z"/><path fill="var(--color3, #000)" d="M16.844 10.552a.334.334 0 01.322-.419h4.092c.151 0 .284.102.322.248l1.542 5.832a.334.334 0 01-.322.419h-4.092a.333.333 0 01-.322-.248l-1.542-5.832z"/><path fill="var(--color3, #000)" d="M27.756 12.796c.887-1.289 1.009-5.193 1.009-5.193-.817.106-1.207.915-1.457 1.434-.122.254-.212.439-.301.439l-.376 2.391-3.761.672-.009.013c-.185.005-.828.041-1.248.308 0 0-.217.163-.092.277.06.065.041.136.022.207s-.038.141.022.207c.05.055.058.112.066.168.011.077.021.152.14.218 0 0-.022.174.136.245l.023.01c.167.075.491.221.554.164.023-.021.082-.064.147-.111.117-.085.257-.187.261-.215.005-.044-.005-.12-.147-.131 0 0 .136-.027.277-.125.147-.087.305-.315.305-.315l.143-.327c3.484.297 4.288-.335 4.288-.335z"/><path fill="var(--color3, #000)" d="M26.735 9.391l-.34 1.788-.086.45-3.009.667c.143.125.424.505.403 1.021.931.134 3.025.274 3.949-.242.169-.131.547-.605.712-1.446 1.082-3.722.207-4.269.207-4.269-1.216.158-1.836 2.031-1.836 2.031z"/><path fill="var(--color1, #fcddd4)" d="M16.171 21.39a4.33 4.33 0 00-.525-1.317 4.486 4.486 0 00-.839-1.02c-.04-.04-.085-.076-.13-.112a4.346 4.346 0 00-2.72-1.006h-.17a4.346 4.346 0 00-1.378.247c-.054.018-.108.04-.162.058a4.346 4.346 0 00-1.31.813 4.354 4.354 0 00-.839 1.02c-.031.049-.058.103-.09.153-.197.36-.346.751-.435 1.164-.013.058-.022.117-.036.175a4.363 4.363 0 00-.067.769h8.8a4.33 4.33 0 00-.067-.769c-.009-.058-.018-.117-.031-.175z"/><path fill="var(--color15, #fff)" d="M21.61 23.627a5.321 5.321 0 00-.656-1.636 5.565 5.565 0 00-1.049-1.268c-.05-.05-.107-.095-.163-.14a5.442 5.442 0 00-1.475-.871c-.067-.028-.135-.05-.202-.073a5.49 5.49 0 00-1.722-.307h-.214a5.454 5.454 0 00-1.722.307c-.067.022-.135.05-.202.073a5.426 5.426 0 00-1.475.871c-.056.045-.112.095-.163.14a5.463 5.463 0 00-1.049 1.268c-.039.061-.073.128-.112.19a5.346 5.346 0 00-.544 1.446c-.017.073-.028.145-.045.218a5.41 5.41 0 00-.084.955h11a5.36 5.36 0 00-.084-.955 2.77 2.77 0 00-.039-.218z"/><path fill="var(--color26, #f37753)" d="M22.962 22.535c-.731 0-1.006-.64-1.006-1.532s-.251-1.623-1.234-1.669c-1.28-.046-1.165 1.189-1.165 2.698 0 1.92-.686.686-1.645 1.76-.823.914.229 2.538.548 3.018h4.136c.137-.251.48-.869.868-1.623.868-1.6.229-2.652-.503-2.652z"/><path fill="var(--color15, #fff)" opacity=".2" d="M20.996 22.832h-.206v2.867l-.864-1.152-.165.123 1.028 1.372v.768h.206v-2.166l.871-1.081-.16-.129-.711.883v-1.484z"/><path fill="var(--color1, #fcddd4)" d="M17.604 26.8h6v3.333h-6V26.8z"/></symbol><symbol id="icon-illustration2" viewBox="0 0 34 32"><path fill="var(--color1, #fcddd4)" d="M15.741 6.647c-3.953-2.699-10.242.36-9.803 6.795.749 10.972 8.395 12.247 15.081 10.972 8.749-1.668 10.767-11.676 2.689-10.972-6.483.565-3.026-3.421-7.967-6.795z"/><path fill="var(--color12, #f58a6b)" d="M12.772 25.687a2.356 2.356 0 012.356-2.356h12.583v5.184h-14.94v-2.828z"/><path fill="var(--color27, #3e1a0b)" d="M7.464 14.123c.077.063.137.132.185.197l.124-.165a1.69 1.69 0 00-.185-.173l-.124.142z"/><path fill="var(--color28, #f69e9f)" d="M7.866 14.412a.249.249 0 00-.35-.093l-.164.104a.285.285 0 00-.099.369c.07.126.225.168.349.093l.165-.104a.277.277 0 00.099-.369z"/><path fill="var(--color3, #000)" d="M14.52 9.154l-2.914.48-.155-.938a.16.16 0 00-.178-.127l-2.31.378a.16.16 0 00-.127.178l.155.938-2.747.453c-.069.012-.123.081-.11.15l1.88 11.459c.012.069.081.123.15.11l8.277-1.358c.069-.012.123-.081.11-.15L14.665 9.269c-.003-.077-.075-.124-.146-.117z"/><path fill="var(--color6, #f36f49)" d="M14.116 10.606l-7.273 1.197a.117.117 0 00-.096.134l1.629 9.916a.117.117 0 00.134.096l7.273-1.197a.117.117 0 00.096-.134l-1.629-9.916a.117.117 0 00-.134-.096z"/><path fill="var(--color29, #fafbfc)" d="M14.093 10.255l-7.096 1.162a.112.112 0 00-.091.133l1.59 9.68a.112.112 0 00.133.091l7.101-1.169a.112.112 0 00.091-.133l-1.59-9.68a.12.12 0 00-.137-.084z"/><path fill="var(--color12, #f58a6b)" opacity=".8" d="M13.833 10.673l-6.456 1.063c-.035.003-.066.024-.082.052s-.026.061-.022.096l1.467 8.931c.003.035.024.066.052.082s.061.026.096.022l6.457-1.057c.035-.003.066-.024.082-.052s.026-.061.022-.096l-1.469-8.937c-.003-.035-.024-.066-.052-.082s-.061-.026-.096-.022zm1.565 9.049c.006.022-.001.042-.015.058s-.029.026-.052.032l-6.45 1.061c-.022.006-.042-.001-.058-.015s-.026-.029-.032-.052l-1.469-8.937c-.006-.022.001-.042.014-.058s.029-.026.052-.032l6.456-1.063c.022-.006.042.001.058.014s.026.029.032.052l1.463 8.938z"/><path fill="var(--color29, #fafbfc)" d="M10.155 9.02c-.138.025-.23.152-.205.289s.152.23.289.205a.249.249 0 00.205-.289.252.252 0 00-.289-.205z"/><path fill="var(--color12, #f58a6b)" d="M12.093 9.408l-3.629.594a.16.16 0 00-.127.178l.169 1.013a.16.16 0 00.178.127l3.629-.594a.16.16 0 00.127-.178l-.165-1.02c-.021-.079-.102-.135-.182-.119z"/><path fill="var(--color6, #f36f49)" opacity=".8" d="M10.14 9.883l-1.382.226a.117.117 0 00-.096.134l.131.782a.117.117 0 00.134.096l1.382-.226a.117.117 0 00.096-.134l-.131-.782a.117.117 0 00-.134-.096z"/><path fill="var(--color21, #ee4d47)" opacity=".2" d="M9.947 12.443l.016.097 3.8-.625-.016-.097-3.8.625zM9.987 12.689l.016.097 3.8-.625-.016-.097-3.8.625zM11.922 12.616l.016.097 1.903-.313-.016-.097-1.903.313zM10.027 12.929l.016.097 1.782-.293-.016-.097-1.782.293zM10.209 14.054l.016.097 3.8-.625-.016-.097-3.8.625zM10.249 14.3l.016.097 3.8-.625-.016-.097-3.8.625zM12.19 14.227l.016.097 1.903-.313-.016-.097-1.903.313zM10.289 14.54l.016.097 1.782-.293-.016-.097-1.782.293zM10.447 15.499l.016.097 3.8-.625-.016-.097-3.8.625zM10.487 15.745l.016.097 3.8-.625-.016-.097-3.8.625zM12.428 15.671l.016.097 1.903-.313-.016-.097-1.903.313zM10.527 15.985l.016.097 1.782-.293-.016-.097-1.782.293zM10.691 16.987l.016.097 3.8-.625-.016-.097-3.8.625zM10.732 17.239l.016.097 3.8-.625-.016-.097-3.8.625zM12.673 17.166l.016.097 1.903-.313-.016-.097-1.903.313zM10.772 17.479l.016.097 1.782-.293-.016-.097-1.782.293zM10.931 18.466l.016.097 3.8-.625-.016-.097-3.8.625zM10.971 18.712l.016.097 3.8-.625-.016-.097-3.8.625zM12.912 18.639l.016.097 1.903-.313-.016-.097-1.903.313zM11.017 18.951l.016.097 1.782-.293-.016-.097-1.782.293zM8.154 12.459l-.046.006.006.046.143.87.006.046.046-.006.933-.154.046-.006-.006-.046-.143-.869-.006-.046-.046.006-.933.154zm1.031.728l-.847.137-.131-.782.842-.135.137.781zM8.42 14.101l-.046.006.012.045.143.87.006.046.046-.006.933-.154.046-.006-.006-.046-.143-.87-.006-.046-.046.006-.938.155zm1.031.728l-.842.135-.131-.782.842-.135.131.782zM8.679 15.673l-.046.006.006.046.143.869.006.046.046-.006.933-.154.046-.006-.006-.046-.143-.869-.006-.046-.046.006-.933.154zm1.03.728l-.842.135-.131-.782.842-.135.131.782zM8.94 17.256l-.046.006.006.046.144.875.006.046.046-.006.933-.154.046-.006-.006-.046-.143-.869-.006-.046-.046.006-.934.148zm1.031.728l-.842.135-.131-.782.842-.135.131.782zM9.193 18.782l-.046.006.006.046.143.869.006.046.046-.006.933-.154.046-.006-.006-.046-.143-.869-.006-.046-.046.006-.933.154zm1.029.722l-.842.135-.132-.782.842-.135.132.782z"/><path fill="var(--color21, #ee4d47)" d="M8.735 12.875l-.487-.29-.055.087.578.338.025-.043.658-1.066-.085-.049-.634 1.023z"/><path fill="var(--color12, #f58a6b)" d="M9.012 14.562l-.487-.29-.055.087.535.314.041.019.026-.037.657-1.072-.085-.049-.632 1.029zM9.544 17.78l-.492-.289-.049.085.529.315.043.025.025-.043.664-1.068-.087-.055-.632 1.029z"/><path fill="var(--color29, #fafbfc)" d="M8.158 22.774c-.051.014-.079.063-.066.114s.063.079.114.066c.051-.014.079-.063.066-.114s-.063-.079-.114-.066zM9.543 22.378c.035-.016.051-.057.035-.092s-.057-.051-.092-.035-.051.057-.035.092c.016.035.057.051.092.035zM11.465 21.81a.052.052 0 10-.027-.101.052.052 0 00.027.101zM12.465 21.614c-.045.012-.07.055-.057.1s.055.07.1.058a.08.08 0 00.057-.1.084.084 0 00-.1-.058zM13.985 21.273c-.017.005-.025.019-.021.036s.019.025.036.021c.017-.005.025-.019.021-.036.001-.018-.019-.025-.036-.021zM17.125 20.245a.046.046 0 00-.033.057.046.046 0 00.057.033.046.046 0 00.033-.057c0-.024-.029-.04-.057-.033z"/><path fill="var(--color15, #fff)" d="M22.361 11.219a.943.943 0 00-.943-.943h-3.557a.943.943 0 00-.943.943v.49c0 .521.422.943.943.943h4.5v-1.433z"/><path fill="var(--color30, #f4a984)" d="M20.948 11.479a.18.18 0 10.36 0 .18.18 0 00-.36 0zM20.196 11.479a.18.18 0 10.36 0 .18.18 0 00-.36 0zM19.445 11.479a.18.18 0 10.36 0 .18.18 0 00-.36 0zM18.693 11.479a.18.18 0 10.36 0 .18.18 0 00-.36 0zM17.941 11.479a.18.18 0 10.36 0 .18.18 0 00-.36 0z"/><path fill="var(--color4, #402b2b)" d="M15.317 19.113c-2.055 0-1.013-2.969-.236-4.454.416-.314 1.437-.947 2.191-.966s1.225.919 1.367 1.39c-.086.008-.174.368.165 1.744s.173 2.097.047 2.286h-3.535z"/><path fill="var(--color3, #000)" d="M17.466 18.408c-.194-.339-.048-.863-.048-.863l-.598.121-.598-.121s.073.25.048.524c.21.242.695.694 1.195.339z"/><path fill="var(--color3, #000)" d="M17.381 17.734a2.153 2.153 0 01-.481.208c-.232.07-.453.101-.627.094a1.614 1.614 0 00-.051-.491l.598.121.598-.121s-.021.076-.036.189zM15.358 18.884c.347.307 1.034.976 1.47.976s1.211-.637 1.559-.944c-.17-.065-.686-.266-.808-.371a.569.569 0 01-.105-.137c-.501.355-.985-.097-1.195-.347-.016.177-.065.355-.202.476-.137.113-.557.282-.719.347z"/><path fill="var(--color3, #000)" d="M18.464 15.714c-.057-.105-.145-.121-.202-.105 0 0-.162-.516-.275-.895-.38-.178-.735-.331-1.163-.363v-.008h-.242c-.266.008-.533.016-.791.065-.065.016-.129.032-.194.032-.081.428-.218 1.178-.275 1.17h-.008c-.008 0-.008 0-.016-.008-.056-.016-.121 0-.178.097-.097.178 0 .532.129.637.065.048.121.089.162.113.065.323.178.629.347.815.444.476.856.581.969.597h.048c.081-.008.525-.089 1.001-.605.17-.177.291-.307.363-.782.048-.024.097-.065.178-.129.145-.097.242-.452.145-.629z"/><path fill="var(--color24, #d87c60)" d="M16.812 16.167s.006.182-.043.242-.142.118-.15.162c-.009.036.03.1.098.115s.079.04.079.04-.126.037-.204-.047c-.079-.084-.019-.171.038-.223s.083-.074.108-.104c.032-.031.074-.185.074-.185zM17.299 16.969h-.976c-.032 0-.054.031-.042.06.069.157.238.388.519.388.28 0 .461-.229.539-.386.015-.029-.008-.062-.041-.062z"/><path fill="var(--color15, #fff)" d="M17.295 17.11h-.971c-.017-.028-.03-.056-.042-.081-.013-.029.01-.06.042-.06h.976c.033 0 .055.033.041.062a.652.652 0 01-.045.079z"/><path fill="var(--color4, #402b2b)" d="M17.748 13.761c1.203.153.921 1.621.686 1.88l-.173.291a2.458 2.458 0 01-.283-1.013c-.181.118-.721.353-1.437.353-.895 0-1.141.148-1.225.566-.21-.468-.354-1.415.162-1.947.711-.742 1.785-.92 2.269-.129z"/><path fill="var(--color31, #ed8a40)" d="M15.318 15.835l.04.347s-.121-.065-.145-.226c-.008-.097.032-.161.105-.121zM18.249 15.835l-.04.347s.121-.065.145-.226c.008-.097-.024-.161-.105-.121z"/><path fill="var(--color4, #402b2b)" d="M17.611 16.227a.135.135 0 01-.137.137.135.135 0 01-.137-.137c0-.073.057-.137.137-.137s.137.065.137.137zM16.174 16.364c.076 0 .137-.061.137-.137s-.061-.137-.137-.137c-.076 0-.137.061-.137.137s.061.137.137.137z"/><path fill="var(--color3, #000)" d="M19.703 20.715c.032-.871-.234-1.387-.638-1.605s-1.357-.492-1.389-.5l-.864.686-.824-.686c-.032.008-1.009.282-1.405.5-.404.218-.67.734-.638 1.605.024.702-.024 1.807-.016 2.614h5.798c0-.807-.048-1.912-.024-2.614z"/><path fill="var(--color21, #ee4d47)" opacity=".29" d="M17.288 18.908l-.226-.105-.258.476-.258-.476-.234.105.339.549v3.872h.315v-3.896l.323-.524z"/><path fill="var(--color15, #fff)" d="M16.27 18.061c-.008.234.323.839.323.839l-.573.557-.186-.807s.186-.492.436-.589zM17.369 18.061c.008.234-.363.847-.363.847l.606.549.186-.815s-.178-.484-.428-.581zM16.9 19.594c0 .048-.04.089-.089.089s-.089-.04-.089-.089c0-.048.04-.089.089-.089s.089.04.089.089zM16.9 20.417c0 .048-.04.089-.089.089s-.089-.04-.089-.089c0-.048.04-.089.089-.089s.089.032.089.089zM16.9 21.223c0 .048-.04.089-.089.089s-.089-.04-.089-.089c0-.048.04-.089.089-.089s.089.04.089.089zM16.9 22.119c0 .048-.04.089-.089.089s-.089-.04-.089-.089c0-.048.04-.089.089-.089s.089.04.089.089z"/><path fill="var(--color3, #000)" d="M14.074 19.352s-.856 2.299-.921 2.678c-.057.379.428 1.258.654 1.291.331.048.598-.048.929-.613.323-.565.267-2.977.267-2.977l-.929-.379z"/><path fill="var(--color21, #ee4d47)" opacity=".29" d="M15.011 19.505s-.057 2.775-.178 3.122a1.16 1.16 0 01-.686.71h.549s.428-.282.468-1.129c.024-.508-.065-2.13-.113-2.67-.016-.145-.04-.032-.04-.032z"/><path fill="var(--color15, #fff)" d="M15.2 19.243l-.928-.375-.194.479.928.375.194-.479z"/><path fill="var(--color21, #ee4d47)" opacity=".29" d="M18.709 19.9s-.331 1.573-.355 2.218 0 1.202 0 1.202l.234.016s.057-2.823.121-3.436z"/><path fill="var(--color15, #fff)" d="M15.899 17.722c-.444 0-.59-.218-.678-.549-.04-.177-.056-.653-.056-.67h.129c0 .008.016.484.057.645.081.315.202.476.638.444l.008.129H15.9zM16.812 13.334c-.355-.032-1.171-.008-1.542.702 0 0 .097.169.21.056.404-.363.969-.371 1.316-.371.355 0 .945 0 1.341.371.121.105.21-.056.21-.056-.363-.71-1.179-.734-1.534-.702z"/><path fill="var(--color3, #000)" d="M18.725 15.77s-.016-.492-.024-.629c-.016-.266-.056-.702-.145-.936-.291-.799-1.236-.952-1.728-.952-.501 0-1.462.153-1.752.944-.081.226-.121.629-.145.903-.008.161-.016.662-.016.662h.137s0-.5.016-.662c.016-.21.056-.516.162-.807.242-.686 1.139-.758 1.575-.758.444 0 1.357.073 1.599.758.113.323.153.653.17.863.008.137.016.613.016.613h.137z"/><path fill="var(--color15, #fff)" d="M15.083 15.673h-.178v.758h.178v-.758z"/><path fill="var(--color3, #000)" d="M15.398 16.577h-.202a.18.18 0 01-.178-.177v-.694a.18.18 0 01.178-.178h.202c.024 0 .04.016.04.04v.96c0 .024-.016.048-.04.048zM14.833 16.496h-.008a.073.073 0 01-.073-.073v-.758c0-.04.032-.073.073-.073h.008c.04 0 .073.032.073.073v.758c0 .04-.032.073-.073.073z"/><path fill="var(--color15, #fff)" d="M18.53 16.445h.178v-.758h-.178v.758z"/><path fill="var(--color3, #000)" d="M18.225 16.593h.202a.18.18 0 00.178-.177v-.694a.18.18 0 00-.178-.178h-.202c-.024 0-.04.016-.04.04v.96c-.008.024.016.048.04.048zM18.782 16.512h.008c.04 0 .073-.032.073-.073v-.758a.073.073 0 00-.073-.073h-.008a.073.073 0 00-.073.073v.758c0 .04.032.073.073.073zM16.375 17.642c0 .081-.097.153-.226.153-.121 0-.226-.065-.226-.153s.097-.153.226-.153c.121 0 .226.065.226.153zM14.688 17.125a.996.996 0 01.244-.16c.149-.096.322-.205.386-.235.129-.065.21.048.024.21-.04.035-.087.072-.136.109.101-.039.19-.072.232-.085.137-.04.202.089-.016.21-.089.049-.2.102-.301.148l.035.11s.097-.089.129-.113c.202-.137.307-.024.218.097-.097.121-.242.468-.194.71.032.161.008.387-.032.565-.04.169-.291.67-.291.67l-.646-.226s.145-.153.121-.524c-.007-.122-.056-.25-.104-.377-.06-.16-.121-.318-.098-.462.04-.226.371-.589.428-.645z"/><path fill="var(--color32, #eb5046)" opacity=".3" d="M15.269 18.093c.016-.202 0-.242-.016-.339-.016-.113.008-.258-.04-.363-.056-.113-.145-.177-.299-.145-.202.048-.283.153-.283.153s.162-.065.242-.089c.121-.032.242-.024.291.121.024.089.04.21.057.298.008.065.056.347.016.355-.04 0-.129-.024-.17-.169-.008.032-.016.25-.04.25-.145-.016-.162-.129-.17-.25 0-.056-.008-.137-.024-.242-.057.089-.194.169-.25.21.065.056.186.194.234.25.089.105.17.266.186.436.218-.21.097-.428.089-.5.057.065.17.113.178.024z"/><path fill="var(--color3, #000)" d="M24.427 18.093c0-.121-.097-.21-.226-.21h-5.968c-.121 0-.226.097-.226.21v3.711h6.412v-3.711h.008z"/><path fill="var(--color33, #ca3f3a)" d="M18.241 22.506h5.968c.121 0 .226-.097.226-.21v-.484h-6.412v.484c-.008.113.097.21.218.21z"/><path fill="var(--color33, #ca3f3a)" d="M22.158 22.417h-1.599v.758h1.599v-.758z"/><path fill="var(--color3, #000)" d="M22.351 22.417h-1.599v.758h1.599v-.758z"/><path fill="var(--color3, #000)" d="M22.085 23.103h-1.979v.218h1.979v-.218z"/><path fill="var(--color3, #000)" d="M22.731 23.103h-1.979v.218h1.979v-.218zM24.758 18.093c0-.121-.097-.21-.226-.21h-5.96c-.121 0-.226.097-.226.21v3.711h6.412v-3.711zM18.572 22.506h5.968c.121 0 .226-.097.226-.21v-.484h-6.412v.484c-.008.113.089.21.218.21z"/><path fill="var(--color15, #fff)" opacity=".2" d="M22.133 19.505c0 .323-.258.581-.581.581s-.581-.258-.581-.581c0-.323.258-.581.581-.581s.581.258.581.581z"/><path fill="var(--color3, #000)" d="M16.715 23.103h-1.381v.21h1.381v-.21z"/><path fill="var(--color3, #000)" d="M19.008 23.103h-2.899v.21h2.899v-.21z"/><path fill="var(--color1, #fcddd4)" d="M27.994 21.727h-3.77v1.599h3.77v-1.599z"/><path fill="var(--color26, #f37753)" d="M26.13 21.31v.004c.03-.083.09-.216.191-.414.2-.379.423-.67.423-.67s-.098.324-.298.703c-.177.339-.274.476-.316.497v.019c.051-.067.164-.183.363-.364.33-.296.655-.508.655-.508s-.209.273-.539.573a4.076 4.076 0 01-.402.331c.082-.05.208-.12.393-.211.409-.203.781-.328.781-.328s-.288.208-.697.411c-.312.158-.48.226-.553.238v.014c.066-.036.233-.095.553-.183.451-.125.846-.18.846-.18s-.344.152-.795.277a6.598 6.598 0 01-.356.091c.093-.015.213-.032.366-.05.479-.06.879-.055.879-.055s-.377.102-.855.157c-.386.048-.575.055-.637.041v.01h-.047v-.007a.204.204 0 01-.037.007h-.135a5.551 5.551 0 01-.47-.042c-.479-.06-.855-.157-.855-.157s.4-.005.879.055c.144.017.259.032.35.046a8.272 8.272 0 01-.341-.088c-.456-.125-.795-.277-.795-.277s.395.055.846.18c.328.091.496.15.558.186V21.6c-.07-.012-.239-.08-.558-.239-.409-.203-.697-.411-.697-.411a6.962 6.962 0 001.158.529 4.117 4.117 0 01-.386-.322c-.33-.3-.539-.573-.539-.573a5.523 5.523 0 00.958.802 3.502 3.502 0 01-.261-.442c-.2-.379-.298-.703-.298-.703a4.696 4.696 0 00.623 1.11v-.043c-.025-.057-.042-.223-.042-.554 0-.425.065-.772.065-.772s.065.347.065.772c0 .33-.017.496-.042.554zm-.047.136c-.007-.001-.016-.006-.027-.016l.027.034v-.018zm0 .087a.174.174 0 01-.044-.02.392.392 0 01.044.032v-.012zm.047-.001a.604.604 0 01.047-.033.219.219 0 01-.047.023v.01zm-.047.127a.395.395 0 01-.064-.003.43.43 0 01.064.021v-.018zm.047.01a.507.507 0 01.085-.027.436.436 0 01-.085.007v.019zM25.856 21.713h-.869a7.275 7.275 0 01.87 0zM26.353 21.713h.869c-.135-.009-.298-.018-.47-.014s-.302.009-.4.014z"/><path fill="var(--color34, #f69477)" d="M20.124 14.094c0-.521.422-.943.943-.943h5.308c.521 0 .943.422.943.943v1.254a.943.943 0 01-.943.943h-6.25v-2.197z"/><path fill="var(--color15, #fff)" opacity=".5" d="M21.991 14.741a.238.238 0 11-.476 0 .238.238 0 01.476 0zM22.985 14.741a.238.238 0 11-.476 0 .238.238 0 01.476 0zM23.978 14.741a.238.238 0 11-.476 0 .238.238 0 01.476 0zM24.972 14.741a.238.238 0 11-.476 0 .238.238 0 01.476 0zM25.965 14.741a.238.238 0 11-.476 0 .238.238 0 01.476 0z"/></symbol><symbol id="icon-illustration3" viewBox="0 0 46 32"><path fill="var(--color1, #fcddd4)" d="M41.744 24.537c4.206-4.589 5.736-13.861 0-15.136-8.505-1.89-4.302 4.78-25.174 1.275C3.639 8.504 4.62 21.351 11.79 28.521s24.696 1.753 29.954-3.983z"/><path fill="var(--color4, #402b2b)" d="M50.312 28.714c0 1.769-1.018 3.198-2.27 3.198h-2.27c-1.252 0-2.259-1.441-2.259-3.198 0-1.769 1.018-3.198 2.27-3.198H48.042c1.264 0 2.27 1.441 2.27 3.198z"/><path fill="var(--color5, #f48767)" d="M32.523 28.679c0 1.769-1.018 3.198-2.27 3.198h-2.27c-1.252 0-2.259-1.441-2.259-3.198 0-1.769 1.018-3.198 2.27-3.198H30.253c1.264 0 2.27 1.429 2.27 3.198z"/><path fill="var(--color4, #402b2b)" d="M50.464 28.409l-9.14-.023 1.053-.621 6.917.012 1.17.633z"/><path fill="var(--color6, #f36f49)" d="M59.089 23.196l-.012 5.87-7.42-.012-2.364-1.277-6.917-.012-2.13 1.265-15.097-.035a.445.445 0 01-.445-.445l.012-5.424 34.373.07z"/><path fill="var(--color5, #f48767)" d="M42.915 24.531l-11.844-.023.023-10.743c0-.433.351-.785.796-.785l11.06.023-.035 11.528z"/><path fill="var(--color7, #f06a5b)" d="M61.383 24.578l-18.456-.035.023-11.528 17.672.035c.433 0 .784.351.784.797l-.023 10.732z"/><path fill="var(--color5, #f48767)" d="M34.021 28.679c0 1.769 1.006 3.198 2.259 3.198h2.259v-1.078c.831 0 1.51-.949 1.51-2.12s-.667-2.121-1.498-2.121V25.48h-2.259c-1.252.012-2.259 1.441-2.27 3.198z"/><path fill="var(--color5, #f48767)" d="M40.41 28.702c0 1.453-.831 2.624-1.861 2.613-1.03 0-1.849-1.172-1.849-2.624s.831-2.624 1.861-2.613c1.018 0 1.849 1.172 1.849 2.624z"/><path fill="var(--color8, #f7a58d)" d="M38.55 30.424c-.679 0-1.217-.773-1.217-1.734s.55-1.722 1.229-1.722 1.217.773 1.217 1.734-.55 1.722-1.229 1.722zm0-2.753c-.398 0-.726.457-.726 1.019s.328 1.031.726 1.031c.398 0 .726-.457.726-1.019 0-.574-.316-1.031-.726-1.031z"/><path fill="var(--color8, #f7a58d)" d="M38.55 31.889c-1.252 0-2.259-1.441-2.259-3.198s1.018-3.198 2.27-3.198 2.259 1.441 2.259 3.198-1.03 3.21-2.27 3.198zm.011-5.811c-1.03 0-1.861 1.172-1.861 2.613 0 1.453.819 2.624 1.849 2.624s1.861-1.172 1.861-2.613c0-1.453-.831-2.624-1.849-2.624z"/><path fill="var(--color9, #5b2929)" d="M38.866 28.691c0-.246-.14-.433-.304-.433s-.304.199-.316.433c0 .246.14.433.304.433.176.012.316-.187.316-.433z"/><path fill="var(--color10, #f69276)" d="M23.23 19.927a.103.103 0 01-.07.094c-.094.023-.445.023-.55-.012-.047-.012-.094-.047-.094-.105a35.179 35.179 0 010-2.718c0-.059.047-.094.094-.105.117-.035.527-.059.655-.012a.113.113 0 01.082.105c.023.89-.012 1.804-.117 2.753z"/><path fill="var(--color10, #f69276)" d="M23.804 20.759c-.012 0-.023 0-.047-.012l-.796-.398a.547.547 0 01-.304-.492l.012-2.941a.21.21 0 01.211-.211h2.189c.059 0 .094.047.094.094a.093.093 0 01-.094.094H22.88c-.012 0-.012.012-.012.012l-.012 2.941c0 .141.082.258.199.316l.796.398c.047.023.07.082.047.129-.023.059-.059.07-.094.07z"/><path fill="var(--color6, #f36f49)" d="M41.323 24.508H38.69c-1.393 0-1.72.691-2.575 2.39l-2.703-.012v-.539l-10.322-.023a80.251 80.251 0 01-.14-4.229v-.164c0-.469.082-.984.222-1.5.55-2.015 1.943-4.159 2.516-4.944.187-.258.351-.48.491-.68.398-.527.667-.797 1.17-.797l12.511.035a.59.59 0 01.562.422c1.077 3.96.913 6.971.901 10.04zM30.779 15.44c.012-.059-.035-.105-.094-.105l-3.804-.012a.728.728 0 00-.585.316c-1.486 2.027-2.083 3.878-2.306 4.944l-.234 1.125c-.035.164.07.293.234.293h.925c.152 0 .316-.07.433-.187l1.896-1.816c.211-.199.492-.316.761-.316h2.27l.503-4.241z"/><path fill="var(--color11, #f6977c)" d="M32.745 20.466c-.082.375-.176.762-.257 1.172a.624.624 0 01-.585.492c-3.698.129-6.765.141-8.953-.023v-.164c0-.469.082-.984.222-1.5l9.573.023z"/><path fill="var(--color6, #f36f49)" d="M39.58 15.347l-3.804-.012a.59.59 0 00-.527.316c-1.065 2.027-1.287 3.878-1.287 4.944v1.125a.29.29 0 00.293.293h.925c.152 0 .304-.07.398-.187l1.521-1.816a.876.876 0 01.691-.316h2.27l-.363-4.241c0-.059-.047-.105-.117-.105z"/><path fill="var(--color8, #f7a58d)" d="M41.323 24.508H38.69c-1.393 0-1.72.691-2.575 2.39l-2.703-.012v-.539l-10.322-.023a80.251 80.251 0 01-.14-4.229c2.189.164 5.267.164 8.953.023a.623.623 0 00.585-.492c.082-.41.176-.808.257-1.172a29.058 29.058 0 011.779-5.342c.058-.129-.035-.281-.176-.281l-8.169-.023c.398-.527.667-.797 1.17-.797l12.511.035a.59.59 0 01.562.422c1.077 3.96.913 6.971.901 10.04zm-1.252-4.815l-.363-4.241c0-.059-.059-.105-.117-.105l-3.804-.012a.59.59 0 00-.527.316c-1.065 2.027-1.287 3.878-1.287 4.944v1.125a.29.29 0 00.293.293h.925c.152 0 .304-.07.398-.187l1.521-1.816a.876.876 0 01.691-.316h2.27z"/><path fill="var(--color12, #f58a6b)" d="M40.867 24.203c0 .176-.14.305-.316.305H38.69c-1.393 0-1.72.691-2.575 2.39l-2.703-.012v-.539l.012-4.745c0-2.355.421-3.843 1.533-6.198.164-.351.527-.574.913-.574l4.026.012a.19.19 0 01.187.141c.796 3.023.796 7.943.784 9.22zm-.796-4.51l-.363-4.241c0-.059-.059-.105-.117-.105l-3.804-.012a.59.59 0 00-.527.316c-1.065 2.027-1.287 3.878-1.287 4.944v1.125a.29.29 0 00.293.293h.925c.152 0 .304-.07.398-.187l1.521-1.816a.876.876 0 01.691-.316h2.27z"/><path fill="var(--color8, #f7a58d)" d="M39.556 15.487l-3.78-.012a.468.468 0 00-.398.234c-1.1 2.097-1.276 3.96-1.276 4.874v1.125c0 .082.07.152.152.152h.925a.382.382 0 00.293-.129l1.521-1.816a1.06 1.06 0 01.808-.375h2.107l-.351-4.054zm.024-.14c.059 0 .117.047.117.105l.363 4.241h-2.27a.917.917 0 00-.691.316l-1.521 1.816a.518.518 0 01-.398.187h-.925a.29.29 0 01-.293-.293v-1.125c0-1.066.222-2.917 1.287-4.944a.587.587 0 01.527-.316l3.804.012z"/><path fill="var(--color11, #f6977c)" d="M33.424 24.11v2.238l-4.084-.012a7.065 7.065 0 01.328-1.675.585.585 0 01.468-.398c.901-.105 2.048-.152 3.289-.152zm-8.263 2.226h-2.025a80.121 80.121 0 01-.105-2.191c.492.023.948.07 1.358.129a.585.585 0 01.468.398 7.48 7.48 0 01.304 1.664zM33.412 28.597l-9.468-.023c-.644 0-1.17-.527-1.17-1.172v-.199c0-.187.152-.328.328-.328l10.299.023.012 1.699z"/><path fill="var(--color8, #f7a58d)" d="M35.156 28.597h-1.744v-1.699h2.68l-.293 1.183a.66.66 0 01-.644.515z"/><path fill="var(--color11, #f6977c)" d="M39.322 22.399c-.398.012-1.17.094-1.17.375s.679.375 1.229.375.609-.305.655-.433c.035-.129.07-.328-.714-.316z"/><path fill="var(--color13, #f47b58)" d="M39.287 22.704c.187 0 .386-.059.48-.152a.738.738 0 00-.339-.07c-.304 0-.796.035-1.053.152a.52.52 0 00.281.07h.632zM38.503 22.927c-.07 0-.105.012-.117.023.211.094.597.129.784.129.269 0 .456 0 .515-.059a.477.477 0 00-.257-.094c-.14.012-.831 0-.925 0z"/><path fill="var(--color12, #f58a6b)" d="M33.412 26.359v.539l-10.287-.023-.035-.539 10.322.023z"/><path fill="var(--color14, #f16036)" opacity=".2" d="M28.976 23.993v2.238l-3.452-.012v-2.238c0-.27.246-.48.55-.48h2.364c.293.012.538.234.538.492z"/><path fill="var(--color15, #fff)" d="M24.365 26.148h-.726a.352.352 0 01-.351-.352v-.363c0-.187.152-.351.351-.351h.726c.187 0 .351.152.351.351v.363a.353.353 0 01-.351.352zM31.235 26.172h-.726a.352.352 0 01-.351-.352v-.363c0-.187.152-.351.351-.351h.726c.187 0 .351.152.351.351v.363a.352.352 0 01-.351.352z"/><path fill="var(--color8, #f7a58d)" d="M35.917 19.951a.103.103 0 01-.07.094 6.449 6.449 0 01-1.428-.012c-.058-.012-.094-.047-.094-.105a35.179 35.179 0 010-2.718c0-.059.047-.094.094-.105a6.66 6.66 0 011.533 0 .113.113 0 01.082.105c.035.879-.012 1.792-.117 2.741z"/><path fill="var(--color10, #f69276)" d="M34.103 20.783a.088.088 0 01-.082-.059c-.023-.047 0-.105.047-.129l.796-.387a.368.368 0 00.199-.316l.012-2.941c0-.012-.012-.012-.012-.012h-.492a.093.093 0 01-.094-.094c0-.059.047-.094.094-.094h.492a.21.21 0 01.211.211l-.012 2.941a.547.547 0 01-.304.492l-.796.387h-.059z"/><path fill="var(--color16, #f8b4a0)" d="M28.735 28.736l-3.312-.007.002-.996 3.312.007-.002.996z"/><path fill="var(--color3, #000)" opacity=".6" d="M34.546 15.148c-.726 1.664-1.264 3.198-1.779 5.342l-9.573-.023c.55-2.015 1.943-4.159 2.516-4.944.187-.258.351-.48.492-.68l8.169.023c.14.012.234.152.176.281z"/><path fill="var(--color3, #000)" d="M19.04 16.291s-.27 8.409-.007 17.861c0 0 .789.747 2.283.249 0 0-.014-10.519.387-14.698 0 0 1.881 7.944 4.261 14.823 0 0 1.591.304 2.158-.595 0 0-3.21-11.141-3.68-17.549l-5.402-.091z"/><path fill="var(--color4, #402b2b)" opacity=".45" d="M19.06 16.382h5.382c.041.484.083.997.152 1.522-3.209.014-4.911-.803-5.547-1.176 0-.235.014-.346.014-.346z"/><path fill="var(--color20, #6b1912)" d="M19.6 2.445h1.328l.18-.803s-.526.304-.65.097-.097-.125-.221-.097c-.125.028-.125-.138-.277-.042-.166.111-.415.637-.36.844z"/><path fill="var(--color3, #000)" d="M17.004 12.467l.757-1.832 2.128.798c-.073.587-1.371 1.712-2.128 2.508l-.757-1.474z"/><path fill="var(--color3, #000)" d="M18.777 7.128s-1.165 2.113-1.848 5.22c-.21.956-.159 1.45.159 1.673.398.279 1.115.04 1.474-.717.365-.836 1.04-2.651 1.191-3.523 0 0-.262-2.497-.976-2.654z"/><path fill="var(--color3, #000)" d="M18.77 7.095s.069 1.592.277 9.245c0 0 1.881.955 5.631.291 0 0 .014-2.297.526-4.332 0 0 .955-3.834.47-4.955 0 0-3.057-1.896-6.903-.249z"/><path fill="var(--color3, #000)" d="M21.675 5.578l-.028.991s.235.346.802.388c.567.028.844-.291.844-.291l.055-1.475c-.706.304-1.397.429-1.674.388z"/><path fill="var(--color3, #000)" d="M21.73 5.171l-.055 1.093c.277.042.968-.083 1.66-.388l.041-.706H21.73z"/><path fill="var(--color21, #ee4d47)" opacity=".29" d="M25.479 9.503s-.816 1.841-1.107 2.671c-.291.817-.291 4.069-1.812 4.692 0 0 1.619-.097 2.13-.235 0 0 .028-2.45.526-4.332 0 0 .346-1.979.484-2.879l-.221.083z"/><path fill="var(--color4, #402b2b)" d="M24.4 2.763c-.028.014-.055.457-.055.457l-.111.927-.512.401-.291.125s-.429-.18-.374-.346c.055-.152.332-2.339.387-2.339s.498.318.498.318l.456.457zM20.347 1.933c-.125 0 .069 1.522.069 1.522l.221-.609.152-.734-.443-.18z"/><path fill="var(--color3, #000)" d="M20.554 2.237l-.235 1.951s-.083 1.647 1.273 1.744c1.356.083 2.283-1.259 2.283-1.259s.166.194.346-.138c.166-.332.055-.775-.18-.817-.249-.028-.36.111-.387.318s-.055.36-.055.36l-.208-.028.152-1.605s-.318-.623-.678-.747-.678.374-.678.374-.332.069-.65 0-.526-.152-.526-.152-.194.055-.457 0z"/><path fill="var(--color21, #ee4d47)" opacity=".29" d="M21.589 13.543s-2.111-.319-2.111-.637.438-1.075.757-1.952c.319-.876.598-2.27.717-2.549s-.358.518-.358.518c-.783 1.022-2.382 3.139-2.509 3.426s-.186.969-.199 1.275l.558.319 1.633-.199 1.514-.199z"/><path fill="var(--color3, #000)" d="M20.51 7.409s-3.465 4.462-3.545 5.178-.138 1.422.587 1.509c.724.087 1.412-1.053 1.666-1.634l.576-1.468 1.195-2.908-.478-.677z"/><path fill="var(--color3, #000)" d="M20.991 8.365c0-.398-.478-.558-.876-.558l-2.47 3.426c-.505.704-1.37 2.326-.478 2.868s1.885-.837 2.231-1.553c.191-.446 1.142-2.974 1.593-4.182z"/><path fill="var(--color3, #000)" d="M20.513 7.488s-.243-.946.015-1.562c0 0 .141-.275.293-.157.169.109.303-.14.472-.031s.305-.052.473.158c0 0 .191-.058.301.105s.361.528.306.613c-.055.085-.24.506-.288.52s-.135.017-.175-.14c0 0-.004.158-.087.335-.069.181-.295.402-.295.402l-.578.393-.438-.637z"/><path fill="var(--color4, #402b2b)" d="M21.979 1.739V.327c.844.042 1.715.208 2.144.734.512.623.221 2.062.221 2.062s-.623-.069-.733-.277c-.111-.208-1.162-.498-1.964-.457s-1.19-.042-1.591-.388a.846.846 0 01-.207-.277h2.13v.014z"/><path fill="var(--color3, #000)" d="M24.442 2.597s-.595-.194-1.591-.277c-1.674-.706-2.393-.581-2.393-.581s.014-.54.166-.913c.152-.374 1.176-.9 2.034-.817s1.743.72 1.881 1.329c.111.471-.097 1.259-.097 1.259z"/><path fill="var(--color3, #000)" d="M23.432 2.389c-.18-.858-1.466-1.287-2.38-1.273-.899.014-1.536.761-1.632 1.273-.041.208.124.235.18.055.041-.125.124-.72.955-.651s.789.817 1.204.886c.387.069.83-.208 1.674-.291z"/><path fill="var(--color4, #402b2b)" d="M20.597 2.898l-.043-.087c.037-.018.304-.197.688-.295l.055.143a3 3 0 00-.7.24zM22.952 3.262c-.166-.232-.561-.496-.555-.508l.109-.101c.012.006.365.265.538.546l-.091.064z"/><path fill="var(--color24, #d87c60)" d="M21.606 3.4s-.041.291-.152.374-.304.152-.332.221c-.028.055.028.166.152.208s.138.083.138.083-.249.028-.374-.125.014-.277.138-.346c.125-.069.18-.097.235-.138.069-.042.194-.277.194-.277z"/><path fill="var(--color4, #402b2b)" d="M22.201 3.552c0 .138.097.263.221.263s.221-.111.221-.263c0-.138-.097-.263-.221-.263s-.221.111-.221.263zM20.679 3.372c0 .138.097.263.221.263s.221-.111.221-.263c0-.138-.097-.263-.221-.263a.258.258 0 00-.221.263z"/><path fill="var(--color35, #644545)" d="M19.928 14.18a2.035 2.035 0 01-.239-1.195c.133.186.366.685.239 1.195z"/><path fill="var(--color3, #000)" d="M24.746 13.531c1.01-1.467 1.148-5.91 1.148-5.91-.929.121-1.373 1.041-1.658 1.632-.139.289-.241.499-.342.499l-.428 2.721-4.28.764-.011.015c-.211.006-.942.047-1.42.351 0 0-.248.185-.105.316.068.074.046.155.025.235s-.043.161.025.235c.057.063.066.128.075.191.012.087.024.173.16.248 0 0-.025.198.155.279l.026.012c.189.085.559.252.63.187a2.83 2.83 0 01.168-.127c.133-.097.293-.212.296-.244.006-.05-.006-.136-.167-.149 0 0 .155-.031.316-.142.167-.099.347-.359.347-.359l.163-.372c3.965.338 4.879-.382 4.879-.382z"/><path fill="var(--color3, #000)" d="M23.584 9.655l-.387 2.034-.174.512-3.346.783c.093.173.271.653.239 1.195.744.08 2.812.088 4.182-.199.368-.071.797-.438 1.339-1.779 1.231-4.235.235-4.858.235-4.858-1.383.18-2.089 2.311-2.089 2.311zM14.778 11.472s1.587 1.633.279 1.992-2.546-.696-4.219-.41c-2.868.49-7.577 1.127-10.126-3.652-3.187-5.975 5.129-8.365 9.321-8.365 5.028 0 7.01 2.151 7.488 5.098.382 2.358-1.707 4.62-2.742 5.337z"/><path fill="var(--color15, #fff)" d="M8.733 8.176l.077-1.644c.307-.08.564-.226.769-.439s.325-.483.357-.81c.038-.385-.001-.693-.119-.925-.117-.238-.279-.368-.487-.388a.515.515 0 00-.445.15 1.53 1.53 0 00-.278.497l-.169.45c-.078.212-.192.36-.34.442a.604.604 0 01-.794-.175c-.095-.132-.133-.301-.112-.506a.92.92 0 01.34-.637c.208-.167.462-.288.762-.362s.608-.095.923-.064c.637.063 1.121.25 1.454.562.338.312.48.744.426 1.295-.037.378-.161.69-.37.935s-.467.436-.773.574c-.3.132-.608.228-.926.287l-.124.775-.17-.017zm-.219 2.309a.815.815 0 01-.741-.909.798.798 0 01.294-.554.794.794 0 01.611-.192.75.75 0 01.552.307.794.794 0 01.179.601.806.806 0 01-.295.563.764.764 0 01-.601.183z"/></symbol><symbol id="icon-logo" viewBox="0 0 136 32"><path fill="var(--color15, #fff)" d="M51.195 26.24v-.205l.84-.205c.56-.123.84-.464.84-1.024V13.132h-1.741c-.505 0-.867.136-1.085.41-.218.259-.451.621-.696 1.085l-.737 1.434h-.205l.102-3.338H60.33l.082 3.338h-.205l-.737-1.434c-.232-.464-.457-.826-.676-1.085-.218-.273-.58-.41-1.085-.41h-1.741v11.674c0 .56.28.901.84 1.024l.84.205v.205h-6.451zm10.096 0v-.205l.43-.143c.273-.096.451-.218.532-.369.082-.164.123-.389.123-.676V14.136c0-.273-.041-.485-.123-.635-.068-.164-.232-.294-.492-.389l-.471-.184v-.205h5.858c1.611 0 2.847.307 3.707.922.86.601 1.29 1.44 1.29 2.519 0 .601-.225 1.201-.676 1.802s-1.161 1.065-2.13 1.393l2.847 5.652c.123.232.259.423.41.573.164.137.375.259.635.369l.266.102v.184h-3.666L66.8 19.788h-1.393v5.059c0 .259.041.471.123.635s.252.287.512.369l.492.184v.205h-5.243zm4.116-6.861h.983c.983 0 1.693-.259 2.13-.778.436-.532.655-1.318.655-2.355 0-1.051-.205-1.83-.614-2.335-.41-.519-1.1-.778-2.068-.778h-1.085v6.246zm8.657 6.861v-.205l.512-.184c.273-.109.484-.239.635-.389.15-.164.273-.389.369-.676l4.219-12.104h1.741l4.157 12.186c.109.3.232.532.369.696.136.15.348.28.635.389l.246.082v.205h-5.202v-.205l.307-.102c.287-.109.457-.259.512-.451.068-.205.061-.444-.02-.717l-.963-2.949h-4.547l-.983 2.888c-.096.3-.13.539-.102.717.041.177.205.321.492.43l.451.184v.205h-2.826zm3.113-4.833h4.28l-2.068-6.369-2.212 6.369zM87.59 26.24v-.205l.369-.123c.273-.096.458-.225.553-.389s.143-.382.143-.655c.014-.819.02-1.645.02-2.478v-3.318-2.458c0-.833-.006-1.659-.02-2.478 0-.273-.041-.492-.123-.655-.068-.164-.232-.294-.492-.389l-.451-.164v-.205h9.912l.143 3.4h-.205l-1.167-2.15c-.136-.259-.293-.464-.471-.614s-.423-.225-.737-.225h-3.297c-.013.969-.02 1.959-.02 2.97v3.011h2.13c.314 0 .547-.068.696-.205s.294-.335.43-.594l.43-.778h.205v3.584h-.205l-.451-.778a2.65 2.65 0 00-.43-.594c-.136-.15-.362-.225-.676-.225h-2.13v2.744c0 .86.007 1.707.02 2.54 0 .532.26.881.778 1.044l.614.184v.205h-5.571zm10.88 0v-.205l.41-.164c.273-.096.451-.225.532-.389.096-.164.143-.382.143-.655V14.136c0-.273-.041-.492-.123-.655s-.266-.294-.553-.389l-.41-.164v-.205h5.263v.205l-.41.164c-.273.096-.457.225-.553.389-.082.164-.123.382-.123.655v10.691c0 .273.041.492.123.655.096.15.28.28.553.389l.41.164v.205h-5.263zm12.866.369c-1.324 0-2.526-.266-3.604-.799-1.065-.546-1.912-1.352-2.54-2.417s-.942-2.369-.942-3.912c0-1.174.191-2.205.573-3.092s.901-1.632 1.556-2.232a6.716 6.716 0 012.294-1.352 8.455 8.455 0 012.765-.451c.778 0 1.495.089 2.15.266s1.27.423 1.843.737l.082 2.519h-.205l-1.024-1.638a4.3 4.3 0 00-.451-.696 1.546 1.546 0 00-.614-.492 2.702 2.702 0 00-.614-.205 2.73 2.73 0 00-.737-.082 3.92 3.92 0 00-2.171.635c-.642.423-1.16 1.126-1.556 2.109-.382.969-.573 2.301-.573 3.994 0 1.679.184 3.011.553 3.994.369.969.867 1.666 1.495 2.089a3.91 3.91 0 002.15.614c.437 0 .785-.027 1.044-.082a4.45 4.45 0 00.778-.287 1.29 1.29 0 00.594-.471c.136-.218.259-.451.369-.696l.901-2.007h.205l-.061 2.929c-.573.3-1.215.546-1.925.737s-1.488.287-2.335.287zm11.585 0c-.833 0-1.638-.15-2.417-.451a6.3 6.3 0 01-2.068-1.331c-.601-.601-1.079-1.345-1.434-2.232s-.532-1.925-.532-3.113c0-1.174.177-2.205.532-3.092s.84-1.625 1.454-2.212a6.169 6.169 0 012.068-1.352 6.348 6.348 0 012.396-.471c.833 0 1.631.15 2.396.451.778.287 1.468.73 2.068 1.331.614.587 1.099 1.331 1.454 2.232.355.887.532 1.925.532 3.113 0 1.16-.178 2.191-.532 3.092-.355.887-.84 1.632-1.454 2.232a6.315 6.315 0 01-2.068 1.352c-.765.3-1.564.451-2.396.451zm0-.43c.751 0 1.358-.198 1.823-.594.464-.41.799-1.099 1.004-2.068.218-.983.328-2.328.328-4.035 0-1.72-.109-3.065-.328-4.035-.205-.983-.54-1.673-1.004-2.068-.465-.41-1.072-.614-1.823-.614-.737 0-1.338.205-1.802.614-.465.396-.806 1.085-1.024 2.068-.205.969-.307 2.314-.307 4.035 0 1.707.102 3.052.307 4.035.218.969.559 1.659 1.024 2.068.464.396 1.065.594 1.802.594zm9.231.368c-.492 0-.908-.171-1.249-.512s-.512-.751-.512-1.229c0-.478.17-.894.512-1.249s.758-.532 1.249-.532.908.177 1.249.532c.341.355.512.771.512 1.249s-.171.887-.512 1.229a1.702 1.702 0 01-1.249.512z"/><path fill="var(--color15, #fff)" opacity=".4" d="M0 10.88h10.24V0L0 10.88z"/><path fill="var(--color15, #fff)" d="M30.08 10.88H10.24V32l19.84-21.12z"/></symbol></defs></svg>